<?xml version="1.0" encoding="utf-8"?>
<COLLADA xmlns="http://www.collada.org/2005/11/COLLADASchema" version="1.4.1">
  <asset>
    <unit name="meter" meter="1"/>
    <up_axis>Z_UP</up_axis>
  </asset>
  <library_effects>
      <effect id="wall-effect">
        <profile_COMMON>
          <technique sid="common">
            <phong>
              <diffuse><color>0.82 0.82 0.8 1</color></diffuse>
              <transparency><float>1</float></transparency>
            </phong>
          </technique>
        </profile_COMMON>
      </effect>

      <effect id="wallInset-effect">
        <profile_COMMON>
          <technique sid="common">
            <phong>
              <diffuse><color>0.92 0.91 0.88 1</color></diffuse>
              <transparency><float>1</float></transparency>
            </phong>
          </technique>
        </profile_COMMON>
      </effect>

      <effect id="floor-effect">
        <profile_COMMON>
          <technique sid="common">
            <phong>
              <diffuse><color>0.88 0.86 0.82 1</color></diffuse>
              <transparency><float>1</float></transparency>
            </phong>
          </technique>
        </profile_COMMON>
      </effect>

      <effect id="marbleVein-effect">
        <profile_COMMON>
          <technique sid="common">
            <phong>
              <diffuse><color>0.68 0.68 0.66 1</color></diffuse>
              <transparency><float>1</float></transparency>
            </phong>
          </technique>
        </profile_COMMON>
      </effect>

      <effect id="tileLine-effect">
        <profile_COMMON>
          <technique sid="common">
            <phong>
              <diffuse><color>0.72 0.72 0.7 1</color></diffuse>
              <transparency><float>1</float></transparency>
            </phong>
          </technique>
        </profile_COMMON>
      </effect>

      <effect id="wood-effect">
        <profile_COMMON>
          <technique sid="common">
            <phong>
              <diffuse><color>0.36 0.25 0.17 1</color></diffuse>
              <transparency><float>1</float></transparency>
            </phong>
          </technique>
        </profile_COMMON>
      </effect>

      <effect id="woodLight-effect">
        <profile_COMMON>
          <technique sid="common">
            <phong>
              <diffuse><color>0.52 0.38 0.25 1</color></diffuse>
              <transparency><float>1</float></transparency>
            </phong>
          </technique>
        </profile_COMMON>
      </effect>

      <effect id="woodDark-effect">
        <profile_COMMON>
          <technique sid="common">
            <phong>
              <diffuse><color>0.2 0.13 0.08 1</color></diffuse>
              <transparency><float>1</float></transparency>
            </phong>
          </technique>
        </profile_COMMON>
      </effect>

      <effect id="blueFabric-effect">
        <profile_COMMON>
          <technique sid="common">
            <phong>
              <diffuse><color>0.08 0.15 0.25 1</color></diffuse>
              <transparency><float>1</float></transparency>
            </phong>
          </technique>
        </profile_COMMON>
      </effect>

      <effect id="blueFabricLight-effect">
        <profile_COMMON>
          <technique sid="common">
            <phong>
              <diffuse><color>0.16 0.27 0.42 1</color></diffuse>
              <transparency><float>1</float></transparency>
            </phong>
          </technique>
        </profile_COMMON>
      </effect>

      <effect id="darkFabric-effect">
        <profile_COMMON>
          <technique sid="common">
            <phong>
              <diffuse><color>0.09 0.1 0.12 1</color></diffuse>
              <transparency><float>1</float></transparency>
            </phong>
          </technique>
        </profile_COMMON>
      </effect>

      <effect id="deskDark-effect">
        <profile_COMMON>
          <technique sid="common">
            <phong>
              <diffuse><color>0.15 0.13 0.1 1</color></diffuse>
              <transparency><float>1</float></transparency>
            </phong>
          </technique>
        </profile_COMMON>
      </effect>

      <effect id="glass-effect">
        <profile_COMMON>
          <technique sid="common">
            <phong>
              <diffuse><color>0.58 0.74 0.8 0.45</color></diffuse>
              <transparency><float>0.45</float></transparency>
            </phong>
          </technique>
        </profile_COMMON>
      </effect>

      <effect id="metal-effect">
        <profile_COMMON>
          <technique sid="common">
            <phong>
              <diffuse><color>0.63 0.64 0.62 1</color></diffuse>
              <transparency><float>1</float></transparency>
            </phong>
          </technique>
        </profile_COMMON>
      </effect>

      <effect id="chrome-effect">
        <profile_COMMON>
          <technique sid="common">
            <phong>
              <diffuse><color>0.82 0.85 0.86 1</color></diffuse>
              <transparency><float>1</float></transparency>
            </phong>
          </technique>
        </profile_COMMON>
      </effect>

      <effect id="white-effect">
        <profile_COMMON>
          <technique sid="common">
            <phong>
              <diffuse><color>0.95 0.94 0.9 1</color></diffuse>
              <transparency><float>1</float></transparency>
            </phong>
          </technique>
        </profile_COMMON>
      </effect>

      <effect id="paper-effect">
        <profile_COMMON>
          <technique sid="common">
            <phong>
              <diffuse><color>0.98 0.96 0.86 1</color></diffuse>
              <transparency><float>1</float></transparency>
            </phong>
          </technique>
        </profile_COMMON>
      </effect>

      <effect id="grey-effect">
        <profile_COMMON>
          <technique sid="common">
            <phong>
              <diffuse><color>0.36 0.36 0.36 1</color></diffuse>
              <transparency><float>1</float></transparency>
            </phong>
          </technique>
        </profile_COMMON>
      </effect>

      <effect id="lightGrey-effect">
        <profile_COMMON>
          <technique sid="common">
            <phong>
              <diffuse><color>0.62 0.62 0.6 1</color></diffuse>
              <transparency><float>1</float></transparency>
            </phong>
          </technique>
        </profile_COMMON>
      </effect>

      <effect id="mirror-effect">
        <profile_COMMON>
          <technique sid="common">
            <phong>
              <diffuse><color>0.68 0.82 0.88 1</color></diffuse>
              <transparency><float>1</float></transparency>
            </phong>
          </technique>
        </profile_COMMON>
      </effect>

      <effect id="green-effect">
        <profile_COMMON>
          <technique sid="common">
            <phong>
              <diffuse><color>0.12 0.35 0.15 1</color></diffuse>
              <transparency><float>1</float></transparency>
            </phong>
          </technique>
        </profile_COMMON>
      </effect>

      <effect id="olive-effect">
        <profile_COMMON>
          <technique sid="common">
            <phong>
              <diffuse><color>0.22 0.28 0.14 1</color></diffuse>
              <transparency><float>1</float></transparency>
            </phong>
          </technique>
        </profile_COMMON>
      </effect>

      <effect id="red-effect">
        <profile_COMMON>
          <technique sid="common">
            <phong>
              <diffuse><color>0.64 0.08 0.06 1</color></diffuse>
              <transparency><float>1</float></transparency>
            </phong>
          </technique>
        </profile_COMMON>
      </effect>

      <effect id="orange-effect">
        <profile_COMMON>
          <technique sid="common">
            <phong>
              <diffuse><color>0.78 0.44 0.16 1</color></diffuse>
              <transparency><float>1</float></transparency>
            </phong>
          </technique>
        </profile_COMMON>
      </effect>

      <effect id="bookBlue-effect">
        <profile_COMMON>
          <technique sid="common">
            <phong>
              <diffuse><color>0.12 0.24 0.5 1</color></diffuse>
              <transparency><float>1</float></transparency>
            </phong>
          </technique>
        </profile_COMMON>
      </effect>

      <effect id="bookCream-effect">
        <profile_COMMON>
          <technique sid="common">
            <phong>
              <diffuse><color>0.88 0.78 0.56 1</color></diffuse>
              <transparency><float>1</float></transparency>
            </phong>
          </technique>
        </profile_COMMON>
      </effect>

      <effect id="black-effect">
        <profile_COMMON>
          <technique sid="common">
            <phong>
              <diffuse><color>0.03 0.03 0.035 1</color></diffuse>
              <transparency><float>1</float></transparency>
            </phong>
          </technique>
        </profile_COMMON>
      </effect>
  </library_effects>
  <library_materials>
      <material id="wall" name="wall">
        <instance_effect url="#wall-effect"/>
      </material>

      <material id="wallInset" name="wallInset">
        <instance_effect url="#wallInset-effect"/>
      </material>

      <material id="floor" name="floor">
        <instance_effect url="#floor-effect"/>
      </material>

      <material id="marbleVein" name="marbleVein">
        <instance_effect url="#marbleVein-effect"/>
      </material>

      <material id="tileLine" name="tileLine">
        <instance_effect url="#tileLine-effect"/>
      </material>

      <material id="wood" name="wood">
        <instance_effect url="#wood-effect"/>
      </material>

      <material id="woodLight" name="woodLight">
        <instance_effect url="#woodLight-effect"/>
      </material>

      <material id="woodDark" name="woodDark">
        <instance_effect url="#woodDark-effect"/>
      </material>

      <material id="blueFabric" name="blueFabric">
        <instance_effect url="#blueFabric-effect"/>
      </material>

      <material id="blueFabricLight" name="blueFabricLight">
        <instance_effect url="#blueFabricLight-effect"/>
      </material>

      <material id="darkFabric" name="darkFabric">
        <instance_effect url="#darkFabric-effect"/>
      </material>

      <material id="deskDark" name="deskDark">
        <instance_effect url="#deskDark-effect"/>
      </material>

      <material id="glass" name="glass">
        <instance_effect url="#glass-effect"/>
      </material>

      <material id="metal" name="metal">
        <instance_effect url="#metal-effect"/>
      </material>

      <material id="chrome" name="chrome">
        <instance_effect url="#chrome-effect"/>
      </material>

      <material id="white" name="white">
        <instance_effect url="#white-effect"/>
      </material>

      <material id="paper" name="paper">
        <instance_effect url="#paper-effect"/>
      </material>

      <material id="grey" name="grey">
        <instance_effect url="#grey-effect"/>
      </material>

      <material id="lightGrey" name="lightGrey">
        <instance_effect url="#lightGrey-effect"/>
      </material>

      <material id="mirror" name="mirror">
        <instance_effect url="#mirror-effect"/>
      </material>

      <material id="green" name="green">
        <instance_effect url="#green-effect"/>
      </material>

      <material id="olive" name="olive">
        <instance_effect url="#olive-effect"/>
      </material>

      <material id="red" name="red">
        <instance_effect url="#red-effect"/>
      </material>

      <material id="orange" name="orange">
        <instance_effect url="#orange-effect"/>
      </material>

      <material id="bookBlue" name="bookBlue">
        <instance_effect url="#bookBlue-effect"/>
      </material>

      <material id="bookCream" name="bookCream">
        <instance_effect url="#bookCream-effect"/>
      </material>

      <material id="black" name="black">
        <instance_effect url="#black-effect"/>
      </material>
  </library_materials>
  <library_geometries>
    <geometry id="manga-room-reference" name="manga_room_reference">
      <mesh>
        <source id="room-positions">
          <float_array id="room-positions-array" count="5754">0 0 0 7.7 0 0 7.7 5.8 0 0 5.8 0 0 0 0.035 7.7 0 0.035 7.7 5.8 0.035 0 5.8 0.035 8.15 0.15 0 10.3 0.15 0 10.3 5.75 0 8.15 5.75 0 8.15 0.15 0.035 10.3 0.15 0.035 10.3 5.75 0.035 8.15 5.75 0.035 -0.25 5.8 0 4.95 5.8 0 4.95 6.05 0 -0.25 6.05 0 -0.25 5.8 2.65 4.95 5.8 2.65 4.95 6.05 2.65 -0.25 6.05 2.65 5.55 5.8 0 10.55 5.8 0 10.55 6.05 0 5.55 6.05 0 5.55 5.8 2.65 10.55 5.8 2.65 10.55 6.05 2.65 5.55 6.05 2.65 -0.25 -0.25 0 0 -0.25 0 0 6.05 0 -0.25 6.05 0 -0.25 -0.25 2.65 0 -0.25 2.65 0 6.05 2.65 -0.25 6.05 2.65 -0.25 -0.25 0 2.35 -0.25 0 2.35 0 0 -0.25 0 0 -0.25 -0.25 2.65 2.35 -0.25 2.65 2.35 0 2.65 -0.25 0 2.65 3.35 -0.25 0 7.75 -0.25 0 7.75 0 0 3.35 0 0 3.35 -0.25 2.65 7.75 -0.25 2.65 7.75 0 2.65 3.35 0 2.65 8 -0.25 0 10.55 -0.25 0 10.55 0 0 8 0 0 8 -0.25 2.65 10.55 -0.25 2.65 10.55 0 2.65 8 0 2.65 10.3 -0.25 0 10.55 -0.25 0 10.55 6.05 0 10.3 6.05 0 10.3 -0.25 2.65 10.55 -0.25 2.65 10.55 6.05 2.65 10.3 6.05 2.65 7.75 -0.25 0 8 -0.25 0 8 6.05 0 7.75 6.05 0 7.75 -0.25 2.65 8 -0.25 2.65 8 6.05 2.65 7.75 6.05 2.65 8 2.25 0 9.2 2.25 0 9.2 2.42 0 8 2.42 0 8 2.25 2.15 9.2 2.25 2.15 9.2 2.42 2.15 8 2.42 2.15 8 3.55 0 9.35 3.55 0 9.35 3.72 0 8 3.72 0 8 3.55 2.15 9.35 3.55 2.15 9.35 3.72 2.15 8 3.72 2.15 0.05 5.765 0.25 7.7 5.765 0.25 7.7 5.79 0.25 0.05 5.79 0.25 0.05 5.765 2.25 7.7 5.765 2.25 7.7 5.79 2.25 0.05 5.79 2.25 0.01 0.15 0.25 0.04 0.15 0.25 0.04 5.6 0.25 0.01 5.6 0.25 0.01 0.15 2.25 0.04 0.15 2.25 0.04 5.6 2.25 0.01 5.6 2.25 10.26 0.2 0.25 10.29 0.2 0.25 10.29 5.7 0.25 10.26 5.7 0.25 10.26 0.2 2.25 10.29 0.2 2.25 10.29 5.7 2.25 10.26 5.7 2.25 8.05 5.76 0.25 10.25 5.76 0.25 10.25 5.79 0.25 8.05 5.79 0.25 8.05 5.76 2.25 10.25 5.76 2.25 10.25 5.79 2.25 8.05 5.79 2.25 0.02 5.72 0.05 7.7 5.72 0.05 7.7 5.79 0.05 0.02 5.79 0.05 0.02 5.72 0.18 7.7 5.72 0.18 7.7 5.79 0.18 0.02 5.79 0.18 0.01 0.1 0.05 0.08 0.1 0.05 0.08 5.72 0.05 0.01 5.72 0.05 0.01 0.1 0.18 0.08 0.1 0.18 0.08 5.72 0.18 0.01 5.72 0.18 0.1 0.01 0.05 7.65 0.01 0.05 7.65 0.08 0.05 0.1 0.08 0.05 0.1 0.01 0.18 7.65 0.01 0.18 7.65 0.08 0.18 0.1 0.08 0.18 10.22 0.2 0.04 10.29 0.2 0.04 10.29 5.7 0.04 10.22 5.7 0.04 10.22 0.2 0.16 10.29 0.2 0.16 10.29 5.7 0.16 10.22 5.7 0.16 1.15 5.78 1.55 5.45 5.78 1.55 5.45 5.83 1.55 1.15 5.83 1.55 1.15 5.78 2.25 5.45 5.78 2.25 5.45 5.83 2.25 1.15 5.83 2.25 1.25 5.72 1.45 1.3 5.72 1.45 1.3 5.9 1.45 1.25 5.9 1.45 1.25 5.72 2.35 1.3 5.72 2.35 1.3 5.9 2.35 1.25 5.9 2.35 2.2 5.72 1.45 2.25 5.72 1.45 2.25 5.9 1.45 2.2 5.9 1.45 2.2 5.72 2.35 2.25 5.72 2.35 2.25 5.9 2.35 2.2 5.9 2.35 3.15 5.72 1.45 3.2 5.72 1.45 3.2 5.9 1.45 3.15 5.9 1.45 3.15 5.72 2.35 3.2 5.72 2.35 3.2 5.9 2.35 3.15 5.9 2.35 4.1 5.72 1.45 4.15 5.72 1.45 4.15 5.9 1.45 4.1 5.9 1.45 4.1 5.72 2.35 4.15 5.72 2.35 4.15 5.9 2.35 4.1 5.9 2.35 5.05 5.72 1.45 5.1 5.72 1.45 5.1 5.9 1.45 5.05 5.9 1.45 5.05 5.72 2.35 5.1 5.72 2.35 5.1 5.9 2.35 5.05 5.9 2.35 1.1 5.7 1.47 5.55 5.7 1.47 5.55 5.92 1.47 1.1 5.92 1.47 1.1 5.7 1.55 5.55 5.7 1.55 5.55 5.92 1.55 1.1 5.92 1.55 1.1 5.7 2.25 5.55 5.7 2.25 5.55 5.92 2.25 1.1 5.92 2.25 1.1 5.7 2.34 5.55 5.7 2.34 5.55 5.92 2.34 1.1 5.92 2.34 0.95 5.58 2.5 5.9 5.58 2.5 5.9 5.68 2.5 0.95 5.68 2.5 0.95 5.58 2.56 5.9 5.58 2.56 5.9 5.68 2.56 0.95 5.68 2.56 1.05 5.62 1.2 1.45 5.62 1.2 1.45 5.9 1.2 1.05 5.9 1.2 1.05 5.62 2.55 1.45 5.62 2.55 1.45 5.9 2.55 1.05 5.9 2.55 1.45 5.62 1.2 1.85 5.62 1.2 1.85 5.9 1.2 1.45 5.9 1.2 1.45 5.62 2.55 1.85 5.62 2.55 1.85 5.9 2.55 1.45 5.9 2.55 4.95 5.62 1.2 5.35 5.62 1.2 5.35 5.9 1.2 4.95 5.9 1.2 4.95 5.62 2.55 5.35 5.62 2.55 5.35 5.9 2.55 4.95 5.9 2.55 5.35 5.62 1.2 5.75 5.62 1.2 5.75 5.9 1.2 5.35 5.9 1.2 5.35 5.62 2.55 5.75 5.62 2.55 5.75 5.9 2.55 5.35 5.9 2.55 1.08 5.58 1.22 1.115 5.58 1.22 1.115 5.61 1.22 1.08 5.61 1.22 1.08 5.58 2.48 1.115 5.58 2.48 1.115 5.61 2.48 1.08 5.61 2.48 5 5.58 1.22 5.035 5.58 1.22 5.035 5.61 1.22 5 5.61 1.22 5 5.58 2.48 5.035 5.58 2.48 5.035 5.61 2.48 5 5.61 2.48 1.24 5.58 1.22 1.275 5.58 1.22 1.275 5.61 1.22 1.24 5.61 1.22 1.24 5.58 2.48 1.275 5.58 2.48 1.275 5.61 2.48 1.24 5.61 2.48 5.16 5.58 1.22 5.195 5.58 1.22 5.195 5.61 1.22 5.16 5.61 1.22 5.16 5.58 2.48 5.195 5.58 2.48 5.195 5.61 2.48 5.16 5.61 2.48 1.4 5.58 1.22 1.435 5.58 1.22 1.435 5.61 1.22 1.4 5.61 1.22 1.4 5.58 2.48 1.435 5.58 2.48 1.435 5.61 2.48 1.4 5.61 2.48 5.32 5.58 1.22 5.355 5.58 1.22 5.355 5.61 1.22 5.32 5.61 1.22 5.32 5.58 2.48 5.355 5.58 2.48 5.355 5.61 2.48 5.32 5.61 2.48 1.56 5.58 1.22 1.595 5.58 1.22 1.595 5.61 1.22 1.56 5.61 1.22 1.56 5.58 2.48 1.595 5.58 2.48 1.595 5.61 2.48 1.56 5.61 2.48 5.48 5.58 1.22 5.515 5.58 1.22 5.515 5.61 1.22 5.48 5.61 1.22 5.48 5.58 2.48 5.515 5.58 2.48 5.515 5.61 2.48 5.48 5.61 2.48 1.72 5.58 1.22 1.755 5.58 1.22 1.755 5.61 1.22 1.72 5.61 1.22 1.72 5.58 2.48 1.755 5.58 2.48 1.755 5.61 2.48 1.72 5.61 2.48 5.64 5.58 1.22 5.675 5.58 1.22 5.675 5.61 1.22 5.64 5.61 1.22 5.64 5.58 2.48 5.675 5.58 2.48 5.675 5.61 2.48 5.64 5.61 2.48 2.35 -0.18 0 3.35 -0.18 0 3.35 0.02 0 2.35 0.02 0 2.35 -0.18 2.15 3.35 -0.18 2.15 3.35 0.02 2.15 2.35 0.02 2.15 3.35 0 0.06 3.3469 0.0785 0.06 3.3377 0.1564 0.06 3.3224 0.2334 0.06 3.3011 0.309 0.06 3.2739 0.3827 0.06 3.241 0.454 0.06 3.2026 0.5225 0.06 3.159 0.5878 0.06 3.1104 0.6494 0.06 3.0571 0.7071 0.06 2.9994 0.7604 0.06 2.9378 0.809 0.06 2.8725 0.8526 0.06 2.804 0.891 0.06 2.7327 0.9239 0.06 2.659 0.9511 0.06 2.5834 0.9724 0.06 2.5064 0.9877 0.06 2.4285 0.9969 0.06 2.35 1 0.06 9.6 -0.18 0 10.3 -0.18 0 10.3 0.02 0 9.6 0.02 0 9.6 -0.18 2.15 10.3 -0.18 2.15 10.3 0.02 2.15 9.6 0.02 2.15 9.6 0.75 0.06 9.5412 0.7477 0.06 9.4827 0.7408 0.06 9.4249 0.7293 0.06 9.3682 0.7133 0.06 9.313 0.6929 0.06 9.2595 0.6683 0.06 9.2081 0.6395 0.06 9.1592 0.6068 0.06 9.1129 0.5703 0.06 9.0697 0.5303 0.06 9.0297 0.4871 0.06 8.9932 0.4408 0.06 8.9605 0.3919 0.06 8.9317 0.3405 0.06 8.9071 0.287 0.06 8.8867 0.2318 0.06 8.8707 0.1751 0.06 8.8592 0.1173 0.06 8.8523 0.0588 0.06 8.85 0 0.06 0.7 3.95 0.18 4.35 3.95 0.18 4.35 5.15 0.18 0.7 5.15 0.18 0.7 3.95 0.55 4.35 3.95 0.55 4.35 5.15 0.55 0.7 5.15 0.55 0.8 4.05 0.55 4.25 4.05 0.55 4.25 5.05 0.55 0.8 5.05 0.55 0.8 4.05 0.8 4.25 4.05 0.8 4.25 5.05 0.8 0.8 5.05 0.8 0.82 4.15 0.8 1.45 4.15 0.8 1.45 5 0.8 0.82 5 0.8 0.82 4.15 0.98 1.45 4.15 0.98 1.45 5 0.98 0.82 5 0.98 1.25 4 0.82 4.15 4 0.82 4.15 5.08 0.82 1.25 5.08 0.82 1.25 4 1.02 4.15 4 1.02 4.15 5.08 1.02 1.25 5.08 1.02 0.58 3.9 0.25 0.75 3.9 0.25 0.75 5.18 0.25 0.58 5.18 0.25 0.58 3.9 1.12 0.75 3.9 1.12 0.75 5.18 1.12 0.58 5.18 1.12 4.28 3.9 0.18 4.42 3.9 0.18 4.42 5.18 0.18 4.28 5.18 0.18 4.28 3.9 0.9 4.42 3.9 0.9 4.42 5.18 0.9 4.28 5.18 0.9 0.88 4.22 0.98 1.4 4.22 0.98 1.4 4.94 0.98 0.88 4.94 0.98 0.88 4.22 1.015 1.4 4.22 1.015 1.4 4.94 1.015 0.88 4.94 1.015 1.35 4.04 1.025 1.39 4.04 1.025 1.39 5.04 1.025 1.35 5.04 1.025 1.35 4.04 1.037 1.39 4.04 1.037 1.39 5.04 1.037 1.35 5.04 1.037 1.83 4.04 1.025 1.87 4.04 1.025 1.87 5.04 1.025 1.83 5.04 1.025 1.83 4.04 1.037 1.87 4.04 1.037 1.87 5.04 1.037 1.83 5.04 1.037 2.31 4.04 1.025 2.35 4.04 1.025 2.35 5.04 1.025 2.31 5.04 1.025 2.31 4.04 1.037 2.35 4.04 1.037 2.35 5.04 1.037 2.31 5.04 1.037 2.79 4.04 1.025 2.83 4.04 1.025 2.83 5.04 1.025 2.79 5.04 1.025 2.79 4.04 1.037 2.83 4.04 1.037 2.83 5.04 1.037 2.79 5.04 1.037 3.27 4.04 1.025 3.31 4.04 1.025 3.31 5.04 1.025 3.27 5.04 1.025 3.27 4.04 1.037 3.31 4.04 1.037 3.31 5.04 1.037 3.27 5.04 1.037 1.22 4.02 1.04 1.38 4.02 1.04 1.38 5.07 1.04 1.22 5.07 1.04 1.22 4.02 1.058 1.38 4.02 1.058 1.38 5.07 1.058 1.22 5.07 1.058 0.55 3.25 0 1.25 3.25 0 1.25 3.9 0 0.55 3.9 0 0.55 3.25 0.72 1.25 3.25 0.72 1.25 3.9 0.72 0.55 3.9 0.72 0.6 3.215 0.42 1.2 3.215 0.42 1.2 3.24 0.42 0.6 3.24 0.42 0.6 3.215 0.66 1.2 3.215 0.66 1.2 3.24 0.66 0.6 3.24 0.66 0.84 3.2 0.52 1 3.2 0.52 1 3.24 0.52 0.84 3.24 0.52 0.84 3.2 0.56 1 3.2 0.56 1 3.24 0.56 0.84 3.24 0.56 0.91 3.65 0.72 0.91 3.65 1.08 0.9004 3.7047 0.72 0.9004 3.7047 1.08 0.8726 3.7528 0.72 0.8726 3.7528 1.08 0.83 3.7886 0.72 0.83 3.7886 1.08 0.7778 3.8076 0.72 0.7778 3.8076 1.08 0.7222 3.8076 0.72 0.7222 3.8076 1.08 0.67 3.7886 0.72 0.67 3.7886 1.08 0.6274 3.7528 0.72 0.6274 3.7528 1.08 0.5996 3.7047 0.72 0.5996 3.7047 1.08 0.59 3.65 0.72 0.59 3.65 1.08 0.5996 3.5953 0.72 0.5996 3.5953 1.08 0.6274 3.5472 0.72 0.6274 3.5472 1.08 0.67 3.5114 0.72 0.67 3.5114 1.08 0.7222 3.4924 0.72 0.7222 3.4924 1.08 0.7778 3.4924 0.72 0.7778 3.4924 1.08 0.83 3.5114 0.72 0.83 3.5114 1.08 0.8726 3.5472 0.72 0.8726 3.5472 1.08 0.9004 3.5953 0.72 0.9004 3.5953 1.08 0.732 3.632 0.602 0.768 3.632 0.602 0.768 3.668 0.602 0.732 3.668 0.602 0.732 3.632 0.998 0.768 3.632 0.998 0.768 3.668 0.998 0.732 3.668 0.998 0.82 3.33 0.73 1.08 3.33 0.73 1.08 3.5 0.73 0.82 3.5 0.73 0.82 3.33 0.8 1.08 3.33 0.8 1.08 3.5 0.8 0.82 3.5 0.8 0.58 3.35 0.73 0.82 3.35 0.73 0.82 3.58 0.73 0.58 3.58 0.73 0.58 3.35 0.9 0.82 3.35 0.9 0.82 3.58 0.9 0.58 3.58 0.9 0.58 3.58 0.9 0.86 3.58 0.9 0.86 3.7 0.9 0.58 3.7 0.9 0.58 3.58 0.99 0.86 3.58 0.99 0.86 3.7 0.99 0.58 3.7 0.99 0.35 0.6 0 1.3 0.6 0 1.3 3.2 0 0.35 3.2 0 0.35 0.6 0.75 1.3 0.6 0.75 1.3 3.2 0.75 0.35 3.2 0.75 0.36 0.62 0.08 1.31 0.62 0.08 1.31 1.25 0.08 0.36 1.25 0.08 0.36 0.62 0.67 1.31 0.62 0.67 1.31 1.25 0.67 0.36 1.25 0.67 0.4 0.575 0.15 1.22 0.575 0.15 1.22 0.6 0.15 0.4 0.6 0.15 0.4 0.575 0.28 1.22 0.575 0.28 1.22 0.6 0.28 0.4 0.6 0.28 0.72 0.56 0.2 0.9 0.56 0.2 0.9 0.6 0.2 0.72 0.6 0.2 0.72 0.56 0.24 0.9 0.56 0.24 0.9 0.6 0.24 0.72 0.6 0.24 0.4 0.575 0.33 1.22 0.575 0.33 1.22 0.6 0.33 0.4 0.6 0.33 0.4 0.575 0.46 1.22 0.575 0.46 1.22 0.6 0.46 0.4 0.6 0.46 0.72 0.56 0.38 0.9 0.56 0.38 0.9 0.6 0.38 0.72 0.6 0.38 0.72 0.56 0.42 0.9 0.56 0.42 0.9 0.6 0.42 0.72 0.6 0.42 0.4 0.575 0.51 1.22 0.575 0.51 1.22 0.6 0.51 0.4 0.6 0.51 0.4 0.575 0.64 1.22 0.575 0.64 1.22 0.6 0.64 0.4 0.6 0.64 0.72 0.56 0.56 0.9 0.56 0.56 0.9 0.6 0.56 0.72 0.6 0.56 0.72 0.56 0.6 0.9 0.56 0.6 0.9 0.6 0.6 0.72 0.6 0.6 0.47 1.35 0.76 1.18 1.35 0.76 1.18 2.15 0.76 0.47 2.15 0.76 0.47 1.35 0.79 1.18 1.35 0.79 1.18 2.15 0.79 0.47 2.15 0.79 0.58 1.52 0.79 1.03 1.52 0.79 1.03 1.92 0.79 0.58 1.92 0.79 0.58 1.52 0.86 1.03 1.52 0.86 1.03 1.92 0.86 0.58 1.92 0.86 0.58 1.9 0.86 1.03 1.9 0.86 1.03 1.97 0.86 0.58 1.97 0.86 0.58 1.9 1.28 1.03 1.9 1.28 1.03 1.97 1.28 0.58 1.97 1.28 0.52 2.28 0.76 1.08 2.28 0.76 1.08 2.76 0.76 0.52 2.76 0.76 0.52 2.28 0.778 1.08 2.28 0.778 1.08 2.76 0.778 0.52 2.76 0.778 0.56 2.82 0.77 1.08 2.82 0.77 1.08 3.08 0.77 0.56 3.08 0.77 0.56 2.82 0.85 1.08 2.82 0.85 1.08 3.08 0.85 0.56 3.08 0.85 0.58 3.02 0.86 1.1 3.02 0.86 1.1 3.18 0.86 0.58 3.18 0.86 0.58 3.02 0.92 1.1 3.02 0.92 1.1 3.18 0.92 0.58 3.18 0.92 0.02 1.02 0.95 0.08 1.02 0.95 0.08 1.72 0.95 0.02 1.72 0.95 0.02 1.02 1.62 0.08 1.02 1.62 0.08 1.72 1.62 0.02 1.72 1.62 0.08 1.08 1 0.1 1.08 1 0.1 1.66 1 0.08 1.66 1 0.08 1.08 1.56 0.1 1.08 1.56 0.1 1.66 1.56 0.08 1.66 1.56 0.02 1.86 0.95 0.08 1.86 0.95 0.08 2.56 0.95 0.02 2.56 0.95 0.02 1.86 1.62 0.08 1.86 1.62 0.08 2.56 1.62 0.02 2.56 1.62 0.08 1.92 1 0.1 1.92 1 0.1 2.5 1 0.08 2.5 1 0.08 1.92 1.56 0.1 1.92 1.56 0.1 2.5 1.56 0.08 2.5 1.56 0.67 0.95 0.75 0.67 0.95 0.82 0.6628 0.991 0.75 0.6628 0.991 0.82 0.6419 1.0271 0.75 0.6419 1.0271 0.82 0.61 1.0539 0.75 0.61 1.0539 0.82 0.5708 1.0682 0.75 0.5708 1.0682 0.82 0.5292 1.0682 0.75 0.5292 1.0682 0.82 0.49 1.0539 0.75 0.49 1.0539 0.82 0.4581 1.0271 0.75 0.4581 1.0271 0.82 0.4372 0.991 0.75 0.4372 0.991 0.82 0.43 0.95 0.75 0.43 0.95 0.82 0.4372 0.909 0.75 0.4372 0.909 0.82 0.4581 0.8729 0.75 0.4581 0.8729 0.82 0.49 0.8461 0.75 0.49 0.8461 0.82 0.5292 0.8318 0.75 0.5292 0.8318 0.82 0.5708 0.8318 0.75 0.5708 0.8318 0.82 0.61 0.8461 0.75 0.61 0.8461 0.82 0.6419 0.8729 0.75 0.6419 0.8729 0.82 0.6628 0.909 0.75 0.6628 0.909 0.82 0.52 0.92 0.8 0.62 0.92 0.8 0.62 1.6 0.8 0.52 1.6 0.8 0.52 0.92 1.4 0.62 0.92 1.4 0.62 1.6 1.4 0.52 1.6 1.4 0.45 1.48 1.33 0.75 1.48 1.33 0.75 1.7 1.33 0.45 1.7 1.33 0.45 1.48 1.5 0.75 1.48 1.5 0.75 1.7 1.5 0.45 1.7 1.5 1.35 1.55 0.35 1.95 1.55 0.35 1.95 2.15 0.35 1.35 2.15 0.35 1.35 1.55 0.58 1.95 1.55 0.58 1.95 2.15 0.58 1.35 2.15 0.58 1.82 1.5 0.58 2.05 1.5 0.58 2.05 2.2 0.58 1.82 2.2 0.58 1.82 1.5 1.35 2.05 1.5 1.35 2.05 2.2 1.35 1.82 2.2 1.35 1.73 1.85 0 1.73 1.85 0.35 1.7252 1.8774 0 1.7252 1.8774 0.35 1.7113 1.9014 0 1.7113 1.9014 0.35 1.69 1.9193 0 1.69 1.9193 0.35 1.6639 1.9288 0 1.6639 1.9288 0.35 1.6361 1.9288 0 1.6361 1.9288 0.35 1.61 1.9193 0 1.61 1.9193 0.35 1.5887 1.9014 0 1.5887 1.9014 0.35 1.5748 1.8774 0 1.5748 1.8774 0.35 1.57 1.85 0 1.57 1.85 0.35 1.5748 1.8226 0 1.5748 1.8226 0.35 1.5887 1.7986 0 1.5887 1.7986 0.35 1.61 1.7807 0 1.61 1.7807 0.35 1.6361 1.7712 0 1.6361 1.7712 0.35 1.6639 1.7712 0 1.6639 1.7712 0.35 1.69 1.7807 0 1.69 1.7807 0.35 1.7113 1.7986 0 1.7113 1.7986 0.35 1.7252 1.8226 0 1.7252 1.8226 0.35 1.625 1.825 0.055 2.125 1.825 0.055 2.125 1.875 0.055 1.625 1.875 0.055 1.625 1.825 0.105 2.125 1.825 0.105 2.125 1.875 0.105 1.625 1.875 0.105 2.185 1.85 0 2.185 1.85 0.08 2.1745 1.8823 0 2.1745 1.8823 0.08 2.147 1.9023 0 2.147 1.9023 0.08 2.113 1.9023 0 2.113 1.9023 0.08 2.0855 1.8823 0 2.0855 1.8823 0.08 2.075 1.85 0 2.075 1.85 0.08 2.0855 1.8177 0 2.0855 1.8177 0.08 2.113 1.7977 0 2.113 1.7977 0.08 2.147 1.7977 0 2.147 1.7977 0.08 2.1745 1.8177 0 2.1745 1.8177 0.08 1.625 1.825 0.055 1.8141 1.825 0.055 1.8141 2.303 0.055 1.625 2.303 0.055 1.625 1.825 0.105 1.8141 1.825 0.105 1.8141 2.303 0.105 1.625 2.303 0.105 1.8533 2.3065 0 1.8533 2.3065 0.08 1.8428 2.3388 0 1.8428 2.3388 0.08 1.8153 2.3588 0 1.8153 2.3588 0.08 1.7813 2.3588 0 1.7813 2.3588 0.08 1.7538 2.3388 0 1.7538 2.3388 0.08 1.7433 2.3065 0 1.7433 2.3065 0.08 1.7538 2.2742 0 1.7538 2.2742 0.08 1.7813 2.2542 0 1.7813 2.2542 0.08 1.8153 2.2542 0 1.8153 2.2542 0.08 1.8428 2.2742 0 1.8428 2.2742 0.08 1.625 1.825 0.055 1.3109 1.825 0.055 1.3109 2.1395 0.055 1.625 2.1395 0.055 1.625 1.825 0.105 1.3109 1.825 0.105 1.3109 2.1395 0.105 1.625 2.1395 0.105 1.3167 2.1321 0 1.3167 2.1321 0.08 1.3062 2.1645 0 1.3062 2.1645 0.08 1.2787 2.1844 0 1.2787 2.1844 0.08 1.2447 2.1844 0 1.2447 2.1844 0.08 1.2172 2.1645 0 1.2172 2.1645 0.08 1.2067 2.1321 0 1.2067 2.1321 0.08 1.2172 2.0998 0 1.2172 2.0998 0.08 1.2447 2.0798 0 1.2447 2.0798 0.08 1.2787 2.0798 0 1.2787 2.0798 0.08 1.3062 2.0998 0 1.3062 2.0998 0.08 1.625 1.825 0.055 1.3109 1.825 0.055 1.3109 1.6105 0.055 1.625 1.6105 0.055 1.625 1.825 0.105 1.3109 1.825 0.105 1.3109 1.6105 0.105 1.625 1.6105 0.105 1.3167 1.5679 0 1.3167 1.5679 0.08 1.3062 1.6002 0 1.3062 1.6002 0.08 1.2787 1.6202 0 1.2787 1.6202 0.08 1.2447 1.6202 0 1.2447 1.6202 0.08 1.2172 1.6002 0 1.2172 1.6002 0.08 1.2067 1.5679 0 1.2067 1.5679 0.08 1.2172 1.5355 0 1.2172 1.5355 0.08 1.2447 1.5156 0 1.2447 1.5156 0.08 1.2787 1.5156 0 1.2787 1.5156 0.08 1.3062 1.5355 0 1.3062 1.5355 0.08 1.625 1.825 0.055 1.8141 1.825 0.055 1.8141 1.447 0.055 1.625 1.447 0.055 1.625 1.825 0.105 1.8141 1.825 0.105 1.8141 1.447 0.105 1.625 1.447 0.105 1.8533 1.3935 0 1.8533 1.3935 0.08 1.8428 1.4258 0 1.8428 1.4258 0.08 1.8153 1.4458 0 1.8153 1.4458 0.08 1.7813 1.4458 0 1.7813 1.4458 0.08 1.7538 1.4258 0 1.7538 1.4258 0.08 1.7433 1.3935 0 1.7433 1.3935 0.08 1.7538 1.3612 0 1.7538 1.3612 0.08 1.7813 1.3412 0 1.7813 1.3412 0.08 1.8153 1.3412 0 1.8153 1.3412 0.08 1.8428 1.3612 0 1.8428 1.3612 0.08 1.05 2.45 0 3.95 2.45 0 3.95 3.22 0 1.05 3.22 0 1.05 2.45 0.045 3.95 2.45 0.045 3.95 3.22 0.045 1.05 3.22 0.045 9.05 0.85 0 9.7 0.85 0 9.7 1.55 0 9.05 1.55 0 9.05 0.85 0.045 9.7 0.85 0.045 9.7 1.55 0.045 9.05 1.55 0.045 5.9 3.95 0 7.45 3.95 0 7.45 5.65 0 5.9 5.65 0 5.9 3.95 2.25 7.45 3.95 2.25 7.45 5.65 2.25 5.9 5.65 2.25 5.95 3.88 0.1 6.65 3.88 0.1 6.65 3.96 0.1 5.95 3.96 0.1 5.95 3.88 2.1 6.65 3.88 2.1 6.65 3.96 2.1 5.95 3.96 2.1 6.7 3.88 0.1 7.4 3.88 0.1 7.4 3.96 0.1 6.7 3.96 0.1 6.7 3.88 2.1 7.4 3.88 2.1 7.4 3.96 2.1 6.7 3.96 2.1 7.08 3.855 0.22 7.38 3.855 0.22 7.38 3.88 0.22 7.08 3.88 0.22 7.08 3.855 0.38 7.38 3.855 0.38 7.38 3.88 0.38 7.08 3.88 0.38 7.18 3.84 0.29 7.3 3.84 0.29 7.3 3.88 0.29 7.18 3.88 0.29 7.18 3.84 0.33 7.3 3.84 0.33 7.3 3.88 0.33 7.18 3.88 0.33 7.08 3.855 0.46 7.38 3.855 0.46 7.38 3.88 0.46 7.08 3.88 0.46 7.08 3.855 0.62 7.38 3.855 0.62 7.38 3.88 0.62 7.08 3.88 0.62 7.18 3.84 0.53 7.3 3.84 0.53 7.3 3.88 0.53 7.18 3.88 0.53 7.18 3.84 0.57 7.3 3.84 0.57 7.3 3.88 0.57 7.18 3.88 0.57 7.08 3.855 0.7 7.38 3.855 0.7 7.38 3.88 0.7 7.08 3.88 0.7 7.08 3.855 0.86 7.38 3.855 0.86 7.38 3.88 0.86 7.08 3.88 0.86 7.18 3.84 0.77 7.3 3.84 0.77 7.3 3.88 0.77 7.18 3.88 0.77 7.18 3.84 0.81 7.3 3.84 0.81 7.3 3.88 0.81 7.18 3.88 0.81 6.43 3.82 0.92 6.5 3.82 0.92 6.5 3.88 0.92 6.43 3.88 0.92 6.43 3.82 1.35 6.5 3.82 1.35 6.5 3.88 1.35 6.43 3.88 1.35 6.82 3.82 0.92 6.89 3.82 0.92 6.89 3.88 0.92 6.82 3.88 0.92 6.82 3.82 1.35 6.89 3.82 1.35 6.89 3.88 1.35 6.82 3.88 1.35 6 3.88 1.72 6.68 3.88 1.72 6.68 3.96 1.72 6 3.96 1.72 6 3.88 2.18 6.68 3.88 2.18 6.68 3.96 2.18 6 3.96 2.18 6.72 3.88 1.72 7.4 3.88 1.72 7.4 3.96 1.72 6.72 3.96 1.72 6.72 3.88 2.18 7.4 3.88 2.18 7.4 3.96 2.18 6.72 3.96 2.18 7.05 4.05 0.15 7.42 4.05 0.15 7.42 5.2 0.15 7.05 5.2 0.15 7.05 4.05 1.9 7.42 4.05 1.9 7.42 5.2 1.9 7.05 5.2 1.9 7.12 4.25 0.25 7.34 4.25 0.25 7.34 4.85 0.25 7.12 4.85 0.25 7.12 4.25 1.55 7.34 4.25 1.55 7.34 4.85 1.55 7.12 4.85 1.55 7.09 4.18 0.75 7.13 4.18 0.75 7.13 4.22 0.75 7.09 4.22 0.75 7.09 4.18 1.3 7.13 4.18 1.3 7.13 4.22 1.3 7.09 4.22 1.3 7.28 4.25 0.18 7.38 4.25 0.18 7.38 4.82 0.18 7.28 4.82 0.18 7.28 4.25 1.3 7.38 4.25 1.3 7.38 4.82 1.3 7.28 4.82 1.3 7.062 4.132 1.532 7.418 4.132 1.532 7.418 5.068 1.532 7.062 5.068 1.532 7.062 4.132 1.568 7.418 4.132 1.568 7.418 5.068 1.568 7.062 5.068 1.568 5.9 5.2 0 7.45 5.2 0 7.45 5.65 0 5.9 5.65 0 5.9 5.2 2.55 7.45 5.2 2.55 7.45 5.65 2.55 5.9 5.65 2.55 5.2 3.95 0 5.75 3.95 0 5.75 4.55 0 5.2 4.55 0 5.2 3.95 0.9 5.75 3.95 0.9 5.75 4.55 0.9 5.2 4.55 0.9 5.29 3.9 0.18 5.66 3.9 0.18 5.66 4.03 0.18 5.29 4.03 0.18 5.29 3.9 0.58 5.66 3.9 0.58 5.66 4.03 0.58 5.29 4.03 0.58 5.25 3.98 0.74 5.72 3.98 0.74 5.72 4.28 0.74 5.25 4.28 0.74 5.25 3.98 0.98 5.72 3.98 0.98 5.72 4.28 0.98 5.25 4.28 0.98 5.222 4.082 0.182 5.258 4.082 0.182 5.258 4.498 0.182 5.222 4.498 0.182 5.222 4.082 0.718 5.258 4.082 0.718 5.258 4.498 0.718 5.222 4.498 0.718 5.682 4.082 0.182 5.718 4.082 0.182 5.718 4.498 0.182 5.682 4.498 0.182 5.682 4.082 0.718 5.718 4.082 0.718 5.718 4.498 0.718 5.682 4.498 0.718 6.95 1.55 0 7.6 1.55 0 7.6 2.7 0 6.95 2.7 0 6.95 1.55 0.42 7.6 1.55 0.42 7.6 2.7 0.42 6.95 2.7 0.42 6.92 1.58 0.42 7.62 1.58 0.42 7.62 2.72 0.42 6.92 2.72 0.42 6.92 1.58 0.62 7.62 1.58 0.62 7.62 2.72 0.62 6.92 2.72 0.62 7.02 1.65 0.02 7.25 1.65 0.02 7.25 1.82 0.02 7.02 1.82 0.02 7.02 1.65 0.15 7.25 1.65 0.15 7.25 1.82 0.15 7.02 1.82 0.15 7.08 1.7 0.15 7.16 1.7 0.15 7.16 1.78 0.15 7.08 1.78 0.15 7.08 1.7 0.18 7.16 1.7 0.18 7.16 1.78 0.18 7.08 1.78 0.18 7.02 1.9 0.02 7.25 1.9 0.02 7.25 2.07 0.02 7.02 2.07 0.02 7.02 1.9 0.15 7.25 1.9 0.15 7.25 2.07 0.15 7.02 2.07 0.15 7.08 1.95 0.15 7.16 1.95 0.15 7.16 2.03 0.15 7.08 2.03 0.15 7.08 1.95 0.18 7.16 1.95 0.18 7.16 2.03 0.18 7.08 2.03 0.18 7.02 2.15 0.02 7.25 2.15 0.02 7.25 2.32 0.02 7.02 2.32 0.02 7.02 2.15 0.15 7.25 2.15 0.15 7.25 2.32 0.15 7.02 2.32 0.15 7.08 2.2 0.15 7.16 2.2 0.15 7.16 2.28 0.15 7.08 2.28 0.15 7.08 2.2 0.18 7.16 2.2 0.18 7.16 2.28 0.18 7.08 2.28 0.18 7.02 2.4 0.02 7.25 2.4 0.02 7.25 2.57 0.02 7.02 2.57 0.02 7.02 2.4 0.15 7.25 2.4 0.15 7.25 2.57 0.15 7.02 2.57 0.15 7.08 2.45 0.15 7.16 2.45 0.15 7.16 2.53 0.15 7.08 2.53 0.15 7.08 2.45 0.18 7.16 2.45 0.18 7.16 2.53 0.18 7.08 2.53 0.18 8 3.65 0.15 9.35 3.65 0.15 9.35 3.75 0.15 8 3.75 0.15 8 3.65 1.85 9.35 3.65 1.85 9.35 3.75 1.85 8 3.75 1.85 9.28 3.65 0.15 9.38 3.65 0.15 9.38 5.2 0.15 9.28 5.2 0.15 9.28 3.65 1.85 9.38 3.65 1.85 9.38 5.2 1.85 9.28 5.2 1.85 9.398 4.078 0.728 9.442 4.078 0.728 9.442 4.772 0.728 9.398 4.772 0.728 9.398 4.078 1.172 9.442 4.078 1.172 9.442 4.772 1.172 9.398 4.772 1.172 8.15 3.78 0.02 9.35 3.78 0.02 9.35 5.5 0.02 8.15 5.5 0.02 8.15 3.78 0.08 9.35 3.78 0.08 9.35 5.5 0.08 8.15 5.5 0.08 8.49 4.85 0.1 8.49 4.85 1.85 8.4876 4.8637 0.1 8.4876 4.8637 1.85 8.4806 4.8757 0.1 8.4806 4.8757 1.85 8.47 4.8846 0.1 8.47 4.8846 1.85 8.4569 4.8894 0.1 8.4569 4.8894 1.85 8.4431 4.8894 0.1 8.4431 4.8894 1.85 8.43 4.8846 0.1 8.43 4.8846 1.85 8.4194 4.8757 0.1 8.4194 4.8757 1.85 8.4124 4.8637 0.1 8.4124 4.8637 1.85 8.41 4.85 0.1 8.41 4.85 1.85 8.4124 4.8363 0.1 8.4124 4.8363 1.85 8.4194 4.8243 0.1 8.4194 4.8243 1.85 8.43 4.8154 0.1 8.43 4.8154 1.85 8.4431 4.8106 0.1 8.4431 4.8106 1.85 8.4569 4.8106 0.1 8.4569 4.8106 1.85 8.47 4.8154 0.1 8.47 4.8154 1.85 8.4806 4.8243 0.1 8.4806 4.8243 1.85 8.4876 4.8363 0.1 8.4876 4.8363 1.85 8.6 5.05 1.75 8.6 5.05 1.85 8.5928 5.091 1.75 8.5928 5.091 1.85 8.5719 5.1271 1.75 8.5719 5.1271 1.85 8.54 5.1539 1.75 8.54 5.1539 1.85 8.5008 5.1682 1.75 8.5008 5.1682 1.85 8.4592 5.1682 1.75 8.4592 5.1682 1.85 8.42 5.1539 1.75 8.42 5.1539 1.85 8.3881 5.1271 1.75 8.3881 5.1271 1.85 8.3672 5.091 1.75 8.3672 5.091 1.85 8.36 5.05 1.75 8.36 5.05 1.85 8.3672 5.009 1.75 8.3672 5.009 1.85 8.3881 4.9729 1.75 8.3881 4.9729 1.85 8.42 4.9461 1.75 8.42 4.9461 1.85 8.4592 4.9318 1.75 8.4592 4.9318 1.85 8.5008 4.9318 1.75 8.5008 4.9318 1.85 8.54 4.9461 1.75 8.54 4.9461 1.85 8.5719 4.9729 1.75 8.5719 4.9729 1.85 8.5928 5.009 1.75 8.5928 5.009 1.85 8.228 4.698 0.858 8.672 4.698 0.858 8.672 4.742 0.858 8.228 4.742 0.858 8.228 4.698 0.902 8.672 4.698 0.902 8.672 4.742 0.902 8.228 4.742 0.902 8.08 4 0.7 8.12 4 0.7 8.12 5.5 0.7 8.08 5.5 0.7 8.08 4 1.6 8.12 4 1.6 8.12 5.5 1.6 8.08 5.5 1.6 8.25 2.4 0.45 9.1 2.4 0.45 9.1 3.18 0.45 8.25 3.18 0.45 8.25 2.4 0.85 9.1 2.4 0.85 9.1 3.18 0.85 8.25 3.18 0.85 8.45 2.62 0.85 8.95 2.62 0.85 8.95 3 0.85 8.45 3 0.85 8.45 2.62 0.98 8.95 2.62 0.98 8.95 3 0.98 8.45 3 0.98 8.76 3.03 0.98 8.76 3.03 1.25 8.7576 3.0437 0.98 8.7576 3.0437 1.25 8.7506 3.0557 0.98 8.7506 3.0557 1.25 8.74 3.0646 0.98 8.74 3.0646 1.25 8.7269 3.0694 0.98 8.7269 3.0694 1.25 8.7131 3.0694 0.98 8.7131 3.0694 1.25 8.7 3.0646 0.98 8.7 3.0646 1.25 8.6894 3.0557 0.98 8.6894 3.0557 1.25 8.6824 3.0437 0.98 8.6824 3.0437 1.25 8.68 3.03 0.98 8.68 3.03 1.25 8.6824 3.0163 0.98 8.6824 3.0163 1.25 8.6894 3.0043 0.98 8.6894 3.0043 1.25 8.7 2.9954 0.98 8.7 2.9954 1.25 8.7131 2.9906 0.98 8.7131 2.9906 1.25 8.7269 2.9906 0.98 8.7269 2.9906 1.25 8.74 2.9954 0.98 8.74 2.9954 1.25 8.7506 3.0043 0.98 8.7506 3.0043 1.25 8.7576 3.0163 0.98 8.7576 3.0163 1.25 8.28 2.38 0.08 9.07 2.38 0.08 9.07 2.42 0.08 8.28 2.42 0.08 8.28 2.38 0.62 9.07 2.38 0.62 9.07 2.42 0.62 8.28 2.42 0.62 8.55 2.34 0.34 8.82 2.34 0.34 8.82 2.38 0.34 8.55 2.38 0.34 8.55 2.34 0.39 8.82 2.34 0.39 8.82 2.38 0.39 8.55 2.38 0.39 8.28 2.3 1.05 9.1 2.3 1.05 9.1 2.36 1.05 8.28 2.36 1.05 8.28 2.3 1.9 9.1 2.3 1.9 9.1 2.36 1.9 8.28 2.36 1.9 8.22 2.28 1 9.16 2.28 1 9.16 2.38 1 8.22 2.38 1 8.22 2.28 1.96 9.16 2.28 1.96 9.16 2.38 1.96 8.22 2.38 1.96 8.05 2.55 0.95 8.12 2.55 0.95 8.12 3.12 0.95 8.05 3.12 0.95 8.05 2.55 1 8.12 2.55 1 8.12 3.12 1 8.05 3.12 1 8.04 2.72 0.45 8.14 2.72 0.45 8.14 3 0.45 8.04 3 0.45 8.04 2.72 0.92 8.14 2.72 0.92 8.14 3 0.92 8.04 3 0.92 8.28 2.42 0.88 8.38 2.42 0.88 8.38 2.54 0.88 8.28 2.54 0.88 8.28 2.42 1.15 8.38 2.42 1.15 8.38 2.54 1.15 8.28 2.54 1.15 8.98 2.42 0.88 9.08 2.42 0.88 9.08 2.54 0.88 8.98 2.54 0.88 8.98 2.42 1.08 9.08 2.42 1.08 9.08 2.54 1.08 8.98 2.54 1.08 9.18 4.45 0.45 9.78 4.45 0.45 9.78 4.78 0.45 9.18 4.78 0.45 9.18 4.45 1 9.78 4.45 1 9.78 4.78 1 9.18 4.78 1 9.76 4.12 0.2 9.76 4.12 0.58 9.7431 4.2158 0.2 9.7431 4.2158 0.58 9.6945 4.3 0.2 9.6945 4.3 0.58 9.62 4.3625 0.2 9.62 4.3625 0.58 9.5286 4.3957 0.2 9.5286 4.3957 0.58 9.4314 4.3957 0.2 9.4314 4.3957 0.58 9.34 4.3625 0.2 9.34 4.3625 0.58 9.2655 4.3 0.2 9.2655 4.3 0.58 9.2169 4.2158 0.2 9.2169 4.2158 0.58 9.2 4.12 0.2 9.2 4.12 0.58 9.2169 4.0242 0.2 9.2169 4.0242 0.58 9.2655 3.94 0.2 9.2655 3.94 0.58 9.34 3.8775 0.2 9.34 3.8775 0.58 9.4314 3.8443 0.2 9.4314 3.8443 0.58 9.5286 3.8443 0.2 9.5286 3.8443 0.58 9.62 3.8775 0.2 9.62 3.8775 0.58 9.6945 3.94 0.2 9.6945 3.94 0.58 9.7431 4.0242 0.2 9.7431 4.0242 0.58 9.24 3.92 0.58 9.72 3.92 0.58 9.72 4.35 0.58 9.24 4.35 0.58 9.24 3.92 0.64 9.72 3.92 0.64 9.72 4.35 0.64 9.24 4.35 0.64 9.42 4.43 1.01 9.54 4.43 1.01 9.54 4.5 1.01 9.42 4.5 1.01 9.42 4.43 1.05 9.54 4.43 1.05 9.54 4.5 1.05 9.42 4.5 1.05 10.04 4.12 0.65 10.18 4.12 0.65 10.18 4.4 0.65 10.04 4.4 0.65 10.04 4.12 0.9 10.18 4.12 0.9 10.18 4.4 0.9 10.04 4.4 0.9 9.982 4.242 0.762 10.218 4.242 0.762 10.218 4.278 0.762 9.982 4.278 0.762 9.982 4.242 0.798 10.218 4.242 0.798 10.218 4.278 0.798 9.982 4.278 0.798 0.75 5.35 0 0.75 5.35 0.28 0.7379 5.4184 0 0.7379 5.4184 0.28 0.7032 5.4786 0 0.7032 5.4786 0.28 0.65 5.5232 0 0.65 5.5232 0.28 0.5847 5.547 0 0.5847 5.547 0.28 0.5153 5.547 0 0.5153 5.547 0.28 0.45 5.5232 0 0.45 5.5232 0.28 0.3968 5.4786 0 0.3968 5.4786 0.28 0.3621 5.4184 0 0.3621 5.4184 0.28 0.35 5.35 0 0.35 5.35 0.28 0.3621 5.2816 0 0.3621 5.2816 0.28 0.3968 5.2214 0 0.3968 5.2214 0.28 0.45 5.1768 0 0.45 5.1768 0.28 0.5153 5.153 0 0.5153 5.153 0.28 0.5847 5.153 0 0.5847 5.153 0.28 0.65 5.1768 0 0.65 5.1768 0.28 0.7032 5.2214 0 0.7032 5.2214 0.28 0.7379 5.2816 0 0.7379 5.2816 0.28 0.64 5.3 0.28 0.82 5.3 0.28 0.82 5.42 0.28 0.64 5.42 0.28 0.64 5.3 0.55 0.82 5.3 0.55 0.82 5.42 0.55 0.64 5.42 0.55 0.76 5.34 0.45 0.92 5.34 0.45 0.92 5.4 0.45 0.76 5.4 0.45 0.76 5.34 0.65 0.92 5.34 0.65 0.92 5.4 0.65 0.76 5.4 0.65 0.599 5.399 0.28 0.7614 5.399 0.28 0.7614 5.5614 0.28 0.599 5.5614 0.28 0.599 5.399 0.55 0.7614 5.399 0.55 0.7614 5.5614 0.55 0.599 5.5614 0.55 0.6956 5.4956 0.45 0.8263 5.4956 0.45 0.8263 5.6263 0.45 0.6956 5.6263 0.45 0.6956 5.4956 0.65 0.8263 5.4956 0.65 0.8263 5.6263 0.65 0.6956 5.6263 0.65 0.5 5.44 0.28 0.62 5.44 0.28 0.62 5.62 0.28 0.5 5.62 0.28 0.5 5.44 0.55 0.62 5.44 0.55 0.62 5.62 0.55 0.5 5.62 0.55 0.54 5.56 0.45 0.6 5.56 0.45 0.6 5.72 0.45 0.54 5.72 0.45 0.54 5.56 0.65 0.6 5.56 0.65 0.6 5.72 0.65 0.54 5.72 0.65 0.401 5.399 0.28 0.4786 5.399 0.28 0.4786 5.5614 0.28 0.401 5.5614 0.28 0.401 5.399 0.55 0.4786 5.399 0.55 0.4786 5.5614 0.55 0.401 5.5614 0.55 0.3844 5.4956 0.45 0.3737 5.4956 0.45 0.3737 5.6263 0.45 0.3844 5.6263 0.45 0.3844 5.4956 0.65 0.3737 5.4956 0.65 0.3737 5.6263 0.65 0.3844 5.6263 0.65 0.36 5.3 0.28 0.42 5.3 0.28 0.42 5.42 0.28 0.36 5.42 0.28 0.36 5.3 0.55 0.42 5.3 0.55 0.42 5.42 0.55 0.36 5.42 0.55 0.32 5.34 0.45 0.28 5.34 0.45 0.28 5.4 0.45 0.32 5.4 0.45 0.32 5.34 0.65 0.28 5.34 0.65 0.28 5.4 0.65 0.32 5.4 0.65 0.401 5.201 0.28 0.4786 5.201 0.28 0.4786 5.2786 0.28 0.401 5.2786 0.28 0.401 5.201 0.55 0.4786 5.201 0.55 0.4786 5.2786 0.55 0.401 5.2786 0.55 0.3844 5.1844 0.45 0.3737 5.1844 0.45 0.3737 5.1737 0.45 0.3844 5.1737 0.45 0.3844 5.1844 0.65 0.3737 5.1844 0.65 0.3737 5.1737 0.65 0.3844 5.1737 0.65 0.5 5.16 0.28 0.62 5.16 0.28 0.62 5.22 0.28 0.5 5.22 0.28 0.5 5.16 0.55 0.62 5.16 0.55 0.62 5.22 0.55 0.5 5.22 0.55 0.54 5.12 0.45 0.6 5.12 0.45 0.6 5.08 0.45 0.54 5.08 0.45 0.54 5.12 0.65 0.6 5.12 0.65 0.6 5.08 0.65 0.54 5.08 0.65 0.599 5.201 0.28 0.7614 5.201 0.28 0.7614 5.2786 0.28 0.599 5.2786 0.28 0.599 5.201 0.55 0.7614 5.201 0.55 0.7614 5.2786 0.55 0.599 5.2786 0.55 0.6956 5.1844 0.45 0.8263 5.1844 0.45 0.8263 5.1737 0.45 0.6956 5.1737 0.45 0.6956 5.1844 0.65 0.8263 5.1844 0.65 0.8263 5.1737 0.65 0.6956 5.1737 0.65 0.94 0.72 0.75 0.94 0.72 0.95 0.9316 0.7679 0.75 0.9316 0.7679 0.95 0.9072 0.81 0.75 0.9072 0.81 0.95 0.87 0.8412 0.75 0.87 0.8412 0.95 0.8243 0.8579 0.75 0.8243 0.8579 0.95 0.7757 0.8579 0.75 0.7757 0.8579 0.95 0.73 0.8412 0.75 0.73 0.8412 0.95 0.6928 0.81 0.75 0.6928 0.81 0.95 0.6684 0.7679 0.75 0.6684 0.7679 0.95 0.66 0.72 0.75 0.66 0.72 0.95 0.6684 0.6721 0.75 0.6684 0.6721 0.95 0.6928 0.63 0.75 0.6928 0.63 0.95 0.73 0.5988 0.75 0.73 0.5988 0.95 0.7757 0.5821 0.75 0.7757 0.5821 0.95 0.8243 0.5821 0.75 0.8243 0.5821 0.95 0.87 0.5988 0.75 0.87 0.5988 0.95 0.9072 0.63 0.75 0.9072 0.63 0.95 0.9316 0.6721 0.75 0.9316 0.6721 0.95 0.68 0.6 0.95 0.92 0.6 0.95 0.92 0.84 0.95 0.68 0.84 0.95 0.68 0.6 1.15 0.92 0.6 1.15 0.92 0.84 1.15 0.68 0.84 1.15 0.3 0.8 0.041 2.6 0.8 0.041 2.6 1.15 0.041 0.3 1.15 0.041 0.3 0.8 0.047 2.6 0.8 0.047 2.6 1.15 0.047 0.3 1.15 0.047 1.4 3.5 0.041 3.1 3.5 0.041 3.1 4.9 0.041 1.4 4.9 0.041 1.4 3.5 0.047 3.1 3.5 0.047 3.1 4.9 0.047 1.4 4.9 0.047 2.2 0.4 0.041 4.7 0.4 0.041 4.7 1.7 0.041 2.2 1.7 0.041 2.2 0.4 0.047 4.7 0.4 0.047 4.7 1.7 0.047 2.2 1.7 0.047 3.8 3.8 0.041 5.9 3.8 0.041 5.9 5.5 0.041 3.8 5.5 0.041 3.8 3.8 0.047 5.9 3.8 0.047 5.9 5.5 0.047 3.8 5.5 0.047 4.4 2.2 0.041 6.9 2.2 0.041 6.9 2.9 0.041 4.4 2.9 0.041 4.4 2.2 0.047 6.9 2.2 0.047 6.9 2.9 0.047 4.4 2.9 0.047 5.2 0.35 0.041 7.45 0.35 0.041 7.45 0.8 0.041 5.2 0.8 0.041 5.2 0.35 0.047 7.45 0.35 0.047 7.45 0.8 0.047 5.2 0.8 0.047 0.7 2 0.041 2 2 0.041 2 2.8 0.041 0.7 2.8 0.041 0.7 2 0.047 2 2 0.047 2 2.8 0.047 0.7 2.8 0.047 3.1 3.2 0.041 4.4 3.2 0.041 4.4 4.2 0.041 3.1 4.2 0.041 3.1 3.2 0.047 4.4 3.2 0.047 4.4 4.2 0.047 3.1 4.2 0.047 5.9 4.5 0.041 7.3 4.5 0.041 7.3 5.1 0.041 5.9 5.1 0.041 5.9 4.5 0.047 7.3 4.5 0.047 7.3 5.1 0.047 5.9 5.1 0.047 0 0 0.038 0 5.8 0.038 1 0 0.038 1 5.8 0.038 2 0 0.038 2 5.8 0.038 3 0 0.038 3 5.8 0.038 4 0 0.038 4 5.8 0.038 5 0 0.038 5 5.8 0.038 6 0 0.038 6 5.8 0.038 7 0 0.038 7 5.8 0.038 0 0 0.038 7.7 0 0.038 0 1 0.038 7.7 1 0.038 0 2 0.038 7.7 2 0.038 0 3 0.038 7.7 3 0.038 0 4 0.038 7.7 4 0.038 0 5 0.038 7.7 5 0.038 8.15 0.15 0.04 8.15 5.75 0.04 8.85 0.15 0.04 8.85 5.75 0.04 9.55 0.15 0.04 9.55 5.75 0.04 10.25 0.15 0.04 10.25 5.75 0.04 8.15 0.15 0.04 10.3 0.15 0.04 8.15 0.85 0.04 10.3 0.85 0.04 8.15 1.55 0.04 10.3 1.55 0.04 8.15 2.25 0.04 10.3 2.25 0.04 8.15 2.95 0.04 10.3 2.95 0.04 8.15 3.65 0.04 10.3 3.65 0.04 8.15 4.35 0.04 10.3 4.35 0.04 8.15 5.05 0.04 10.3 5.05 0.04</float_array>
          <technique_common>
            <accessor source="#room-positions-array" count="1918" stride="3">
              <param name="X" type="float"/>
              <param name="Y" type="float"/>
              <param name="Z" type="float"/>
            </accessor>
          </technique_common>
        </source>
        <vertices id="room-vertices">
          <input semantic="POSITION" source="#room-positions"/>
        </vertices>
          <triangles material="floor-symbol" count="12">
            <input semantic="VERTEX" source="#room-vertices" offset="0"/>
            <p>0 1 2 0 2 3 4 7 6 4 6 5 0 4 5 0 5 1 1 5 6 1 6 2 2 6 7 2 7 3 3 7 4 3 4 0</p>
          </triangles>

          <triangles material="grey-symbol" count="36">
            <input semantic="VERTEX" source="#room-vertices" offset="0"/>
            <p>8 9 10 8 10 11 12 15 14 12 14 13 8 12 13 8 13 9 9 13 14 9 14 10 10 14 15 10 15 11 11 15 12 11 12 8 670 671 672 670 672 673 674 677 676 674 676 675 670 674 675 670 675 671 671 675 676 671 676 672 672 676 677 672 677 673 673 677 674 673 674 670 1298 1299 1300 1298 1300 1301 1302 1305 1304 1302 1304 1303 1298 1302 1303 1298 1303 1299 1299 1303 1304 1299 1304 1300 1300 1304 1305 1300 1305 1301 1301 1305 1302 1301 1302 1298</p>
          </triangles>

          <triangles material="wall-symbol" count="120">
            <input semantic="VERTEX" source="#room-vertices" offset="0"/>
            <p>16 17 18 16 18 19 20 23 22 20 22 21 16 20 21 16 21 17 17 21 22 17 22 18 18 22 23 18 23 19 19 23 20 19 20 16 24 25 26 24 26 27 28 31 30 28 30 29 24 28 29 24 29 25 25 29 30 25 30 26 26 30 31 26 31 27 27 31 28 27 28 24 32 33 34 32 34 35 36 39 38 36 38 37 32 36 37 32 37 33 33 37 38 33 38 34 34 38 39 34 39 35 35 39 36 35 36 32 40 41 42 40 42 43 44 47 46 44 46 45 40 44 45 40 45 41 41 45 46 41 46 42 42 46 47 42 47 43 43 47 44 43 44 40 48 49 50 48 50 51 52 55 54 52 54 53 48 52 53 48 53 49 49 53 54 49 54 50 50 54 55 50 55 51 51 55 52 51 52 48 56 57 58 56 58 59 60 63 62 60 62 61 56 60 61 56 61 57 57 61 62 57 62 58 58 62 63 58 63 59 59 63 60 59 60 56 64 65 66 64 66 67 68 71 70 68 70 69 64 68 69 64 69 65 65 69 70 65 70 66 66 70 71 66 71 67 67 71 68 67 68 64 72 73 74 72 74 75 76 79 78 76 78 77 72 76 77 72 77 73 73 77 78 73 78 74 74 78 79 74 79 75 75 79 76 75 76 72 80 81 82 80 82 83 84 87 86 84 86 85 80 84 85 80 85 81 81 85 86 81 86 82 82 86 87 82 87 83 83 87 84 83 84 80 88 89 90 88 90 91 92 95 94 92 94 93 88 92 93 88 93 89 89 93 94 89 94 90 90 94 95 90 95 91 91 95 92 91 92 88</p>
          </triangles>

          <triangles material="wallInset-symbol" count="48">
            <input semantic="VERTEX" source="#room-vertices" offset="0"/>
            <p>96 97 98 96 98 99 100 103 102 100 102 101 96 100 101 96 101 97 97 101 102 97 102 98 98 102 103 98 103 99 99 103 100 99 100 96 104 105 106 104 106 107 108 111 110 108 110 109 104 108 109 104 109 105 105 109 110 105 110 106 106 110 111 106 111 107 107 111 108 107 108 104 112 113 114 112 114 115 116 119 118 116 118 117 112 116 117 112 117 113 113 117 118 113 118 114 114 118 119 114 119 115 115 119 116 115 116 112 120 121 122 120 122 123 124 127 126 124 126 125 120 124 125 120 125 121 121 125 126 121 126 122 122 126 127 122 127 123 123 127 124 123 124 120</p>
          </triangles>

          <triangles material="woodDark-symbol" count="84">
            <input semantic="VERTEX" source="#room-vertices" offset="0"/>
            <p>128 129 130 128 130 131 132 135 134 132 134 133 128 132 133 128 133 129 129 133 134 129 134 130 130 134 135 130 135 131 131 135 132 131 132 128 136 137 138 136 138 139 140 143 142 140 142 141 136 140 141 136 141 137 137 141 142 137 142 138 138 142 143 138 143 139 139 143 140 139 140 136 144 145 146 144 146 147 148 151 150 148 150 149 144 148 149 144 149 145 145 149 150 145 150 146 146 150 151 146 151 147 147 151 148 147 148 144 434 435 436 434 436 437 438 441 440 438 440 439 434 438 439 434 439 435 435 439 440 435 440 436 436 440 441 436 441 437 437 441 438 437 438 434 442 443 444 442 444 445 446 449 448 446 448 447 442 446 447 442 447 443 443 447 448 443 448 444 444 448 449 444 449 445 445 449 446 445 446 442 710 711 712 710 712 713 714 717 716 714 716 715 710 714 715 710 715 711 711 715 716 711 716 712 712 716 717 712 717 713 713 717 714 713 714 710 726 727 728 726 728 729 730 733 732 730 732 731 726 730 731 726 731 727 727 731 732 727 732 728 728 732 733 728 733 729 729 733 730 729 730 726</p>
          </triangles>

          <triangles material="lightGrey-symbol" count="72">
            <input semantic="VERTEX" source="#room-vertices" offset="0"/>
            <p>152 153 154 152 154 155 156 159 158 156 158 157 152 156 157 152 157 153 153 157 158 153 158 154 154 158 159 154 159 155 155 159 156 155 156 152 1218 1219 1220 1218 1220 1221 1222 1225 1224 1222 1224 1223 1218 1222 1223 1218 1223 1219 1219 1223 1224 1219 1224 1220 1220 1224 1225 1220 1225 1221 1221 1225 1222 1221 1222 1218 1234 1235 1236 1234 1236 1237 1238 1241 1240 1238 1240 1239 1234 1238 1239 1234 1239 1235 1235 1239 1240 1235 1240 1236 1236 1240 1241 1236 1241 1237 1237 1241 1238 1237 1238 1234 1250 1251 1252 1250 1252 1253 1254 1257 1256 1254 1256 1255 1250 1254 1255 1250 1255 1251 1251 1255 1256 1251 1256 1252 1252 1256 1257 1252 1257 1253 1253 1257 1254 1253 1254 1250 1266 1267 1268 1266 1268 1269 1270 1273 1272 1270 1272 1271 1266 1270 1271 1266 1271 1267 1267 1271 1272 1267 1272 1268 1268 1272 1273 1268 1273 1269 1269 1273 1270 1269 1270 1266 1386 1387 1388 1386 1388 1389 1390 1393 1392 1390 1392 1391 1386 1390 1391 1386 1391 1387 1387 1391 1392 1387 1392 1388 1388 1392 1393 1388 1393 1389 1389 1393 1390 1389 1390 1386</p>
          </triangles>

          <triangles material="glass-symbol" count="36">
            <input semantic="VERTEX" source="#room-vertices" offset="0"/>
            <p>160 161 162 160 162 163 164 167 166 164 166 165 160 164 165 160 165 161 161 165 166 161 166 162 162 166 167 162 167 163 163 167 164 163 164 160 1274 1275 1276 1274 1276 1277 1278 1281 1280 1278 1280 1279 1274 1278 1279 1274 1279 1275 1275 1279 1280 1275 1280 1276 1276 1280 1281 1276 1281 1277 1277 1281 1278 1277 1278 1274 1282 1283 1284 1282 1284 1285 1286 1289 1288 1286 1288 1287 1282 1286 1287 1282 1287 1283 1283 1287 1288 1283 1288 1284 1284 1288 1289 1284 1289 1285 1285 1289 1286 1285 1286 1282</p>
          </triangles>

          <triangles material="metal-symbol" count="392">
            <input semantic="VERTEX" source="#room-vertices" offset="0"/>
            <p>168 169 170 168 170 171 172 175 174 172 174 173 168 172 173 168 173 169 169 173 174 169 174 170 170 174 175 170 175 171 171 175 172 171 172 168 176 177 178 176 178 179 180 183 182 180 182 181 176 180 181 176 181 177 177 181 182 177 182 178 178 182 183 178 183 179 179 183 180 179 180 176 184 185 186 184 186 187 188 191 190 188 190 189 184 188 189 184 189 185 185 189 190 185 190 186 186 190 191 186 191 187 187 191 188 187 188 184 192 193 194 192 194 195 196 199 198 196 198 197 192 196 197 192 197 193 193 197 198 193 198 194 194 198 199 194 199 195 195 199 196 195 196 192 200 201 202 200 202 203 204 207 206 204 206 205 200 204 205 200 205 201 201 205 206 201 206 202 202 206 207 202 207 203 203 207 204 203 204 200 844 842 840 844 840 838 844 838 836 844 836 834 844 834 832 844 832 830 844 830 828 844 828 826 844 826 824 844 824 822 844 822 820 844 820 818 844 818 816 844 816 814 844 814 812 844 812 810 811 813 815 811 815 817 811 817 819 811 819 821 811 821 823 811 823 825 811 825 827 811 827 829 811 829 831 811 831 833 811 833 835 811 835 837 811 837 839 811 839 841 811 841 843 811 843 845 810 812 813 810 813 811 812 814 815 812 815 813 814 816 817 814 817 815 816 818 819 816 819 817 818 820 821 818 821 819 820 822 823 820 823 821 822 824 825 822 825 823 824 826 827 824 827 825 826 828 829 826 829 827 828 830 831 828 831 829 830 832 833 830 833 831 832 834 835 832 835 833 834 836 837 834 837 835 836 838 839 836 839 837 838 840 841 838 841 839 840 842 843 840 843 841 842 844 845 842 845 843 844 810 811 844 811 845 846 847 848 846 848 849 850 853 852 850 852 851 846 850 851 846 851 847 847 851 852 847 852 848 848 852 853 848 853 849 849 853 850 849 850 846 874 875 876 874 876 877 878 881 880 878 880 879 874 878 879 874 879 875 875 879 880 875 880 876 876 880 881 876 881 877 877 881 878 877 878 874 902 903 904 902 904 905 906 909 908 906 908 907 902 906 907 902 907 903 903 907 908 903 908 904 904 908 909 904 909 905 905 909 906 905 906 902 930 931 932 930 932 933 934 937 936 934 936 935 930 934 935 930 935 931 931 935 936 931 936 932 932 936 937 932 937 933 933 937 934 933 934 930 958 959 960 958 960 961 962 965 964 962 964 963 958 962 963 958 963 959 959 963 964 959 964 960 960 964 965 960 965 961 961 965 962 961 962 958 1340 1338 1336 1340 1336 1334 1340 1334 1332 1340 1332 1330 1340 1330 1328 1340 1328 1326 1340 1326 1324 1340 1324 1322 1340 1322 1320 1340 1320 1318 1340 1318 1316 1340 1316 1314 1340 1314 1312 1340 1312 1310 1340 1310 1308 1340 1308 1306 1307 1309 1311 1307 1311 1313 1307 1313 1315 1307 1315 1317 1307 1317 1319 1307 1319 1321 1307 1321 1323 1307 1323 1325 1307 1325 1327 1307 1327 1329 1307 1329 1331 1307 1331 1333 1307 1333 1335 1307 1335 1337 1307 1337 1339 1307 1339 1341 1306 1308 1309 1306 1309 1307 1308 1310 1311 1308 1311 1309 1310 1312 1313 1310 1313 1311 1312 1314 1315 1312 1315 1313 1314 1316 1317 1314 1317 1315 1316 1318 1319 1316 1319 1317 1318 1320 1321 1318 1321 1319 1320 1322 1323 1320 1323 1321 1322 1324 1325 1322 1325 1323 1324 1326 1327 1324 1327 1325 1326 1328 1329 1326 1329 1327 1328 1330 1331 1328 1331 1329 1330 1332 1333 1330 1333 1331 1332 1334 1335 1332 1335 1333 1334 1336 1337 1334 1337 1335 1336 1338 1339 1336 1339 1337 1338 1340 1341 1338 1341 1339 1340 1306 1307 1340 1307 1341 1376 1374 1372 1376 1372 1370 1376 1370 1368 1376 1368 1366 1376 1366 1364 1376 1364 1362 1376 1362 1360 1376 1360 1358 1376 1358 1356 1376 1356 1354 1376 1354 1352 1376 1352 1350 1376 1350 1348 1376 1348 1346 1376 1346 1344 1376 1344 1342 1343 1345 1347 1343 1347 1349 1343 1349 1351 1343 1351 1353 1343 1353 1355 1343 1355 1357 1343 1357 1359 1343 1359 1361 1343 1361 1363 1343 1363 1365 1343 1365 1367 1343 1367 1369 1343 1369 1371 1343 1371 1373 1343 1373 1375 1343 1375 1377 1342 1344 1345 1342 1345 1343 1344 1346 1347 1344 1347 1345 1346 1348 1349 1346 1349 1347 1348 1350 1351 1348 1351 1349 1350 1352 1353 1350 1353 1351 1352 1354 1355 1352 1355 1353 1354 1356 1357 1354 1357 1355 1356 1358 1359 1356 1359 1357 1358 1360 1361 1358 1361 1359 1360 1362 1363 1360 1363 1361 1362 1364 1365 1362 1365 1363 1364 1366 1367 1364 1367 1365 1366 1368 1369 1366 1369 1367 1368 1370 1371 1368 1371 1369 1370 1372 1373 1370 1373 1371 1372 1374 1375 1372 1375 1373 1374 1376 1377 1374 1377 1375 1376 1342 1343 1376 1343 1377 1444 1442 1440 1444 1440 1438 1444 1438 1436 1444 1436 1434 1444 1434 1432 1444 1432 1430 1444 1430 1428 1444 1428 1426 1444 1426 1424 1444 1424 1422 1444 1422 1420 1444 1420 1418 1444 1418 1416 1444 1416 1414 1444 1414 1412 1444 1412 1410 1411 1413 1415 1411 1415 1417 1411 1417 1419 1411 1419 1421 1411 1421 1423 1411 1423 1425 1411 1425 1427 1411 1427 1429 1411 1429 1431 1411 1431 1433 1411 1433 1435 1411 1435 1437 1411 1437 1439 1411 1439 1441 1411 1441 1443 1411 1443 1445 1410 1412 1413 1410 1413 1411 1412 1414 1415 1412 1415 1413 1414 1416 1417 1414 1417 1415 1416 1418 1419 1416 1419 1417 1418 1420 1421 1418 1421 1419 1420 1422 1423 1420 1423 1421 1422 1424 1425 1422 1425 1423 1424 1426 1427 1424 1427 1425 1426 1428 1429 1426 1429 1427 1428 1430 1431 1428 1431 1429 1430 1432 1433 1430 1433 1431 1432 1434 1435 1432 1435 1433 1434 1436 1437 1434 1437 1435 1436 1438 1439 1436 1439 1437 1438 1440 1441 1438 1441 1439 1440 1442 1443 1440 1443 1441 1442 1444 1445 1442 1445 1443 1444 1410 1411 1444 1411 1445</p>
          </triangles>

          <triangles material="chrome-symbol" count="252">
            <input semantic="VERTEX" source="#room-vertices" offset="0"/>
            <p>208 209 210 208 210 211 212 215 214 212 214 213 208 212 213 208 213 209 209 213 214 209 214 210 210 214 215 210 215 211 211 215 212 211 212 208 216 217 218 216 218 219 220 223 222 220 222 221 216 220 221 216 221 217 217 221 222 217 222 218 218 222 223 218 223 219 219 223 220 219 220 216 224 225 226 224 226 227 228 231 230 228 230 229 224 228 229 224 229 225 225 229 230 225 230 226 226 230 231 226 231 227 227 231 228 227 228 224 522 523 524 522 524 525 526 529 528 526 528 527 522 526 527 522 527 523 523 527 528 523 528 524 524 528 529 524 529 525 525 529 526 525 526 522 566 567 568 566 568 569 570 573 572 570 572 571 566 570 571 566 571 567 567 571 572 567 572 568 568 572 573 568 573 569 569 573 570 569 570 566 622 623 624 622 624 625 626 629 628 626 628 627 622 626 627 622 627 623 623 627 628 623 628 624 624 628 629 624 629 625 625 629 626 625 626 622 638 639 640 638 640 641 642 645 644 642 644 643 638 642 643 638 643 639 639 643 644 639 644 640 640 644 645 640 645 641 641 645 642 641 642 638 654 655 656 654 656 657 658 661 660 658 660 659 654 658 659 654 659 655 655 659 660 655 660 656 656 660 661 656 661 657 657 661 658 657 658 654 1034 1035 1036 1034 1036 1037 1038 1041 1040 1038 1040 1039 1034 1038 1039 1034 1039 1035 1035 1039 1040 1035 1040 1036 1036 1040 1041 1036 1041 1037 1037 1041 1038 1037 1038 1034 1050 1051 1052 1050 1052 1053 1054 1057 1056 1054 1056 1055 1050 1054 1055 1050 1055 1051 1051 1055 1056 1051 1056 1052 1052 1056 1057 1052 1057 1053 1053 1057 1054 1053 1054 1050 1066 1067 1068 1066 1068 1069 1070 1073 1072 1070 1072 1071 1066 1070 1071 1066 1071 1067 1067 1071 1072 1067 1072 1068 1068 1072 1073 1068 1073 1069 1069 1073 1070 1069 1070 1066 1074 1075 1076 1074 1076 1077 1078 1081 1080 1078 1080 1079 1074 1078 1079 1074 1079 1075 1075 1079 1080 1075 1080 1076 1076 1080 1081 1076 1081 1077 1077 1081 1078 1077 1078 1074 1082 1083 1084 1082 1084 1085 1086 1089 1088 1086 1088 1087 1082 1086 1087 1082 1087 1083 1083 1087 1088 1083 1088 1084 1084 1088 1089 1084 1089 1085 1085 1089 1086 1085 1086 1082 1138 1139 1140 1138 1140 1141 1142 1145 1144 1142 1144 1143 1138 1142 1143 1138 1143 1139 1139 1143 1144 1139 1144 1140 1140 1144 1145 1140 1145 1141 1141 1145 1142 1141 1142 1138 1290 1291 1292 1290 1292 1293 1294 1297 1296 1294 1296 1295 1290 1294 1295 1290 1295 1291 1291 1295 1296 1291 1296 1292 1292 1296 1297 1292 1297 1293 1293 1297 1294 1293 1294 1290 1378 1379 1380 1378 1380 1381 1382 1385 1384 1382 1384 1383 1378 1382 1383 1378 1383 1379 1379 1383 1384 1379 1384 1380 1380 1384 1385 1380 1385 1381 1381 1385 1382 1381 1382 1378 1454 1455 1456 1454 1456 1457 1458 1461 1460 1458 1460 1459 1454 1458 1459 1454 1459 1455 1455 1459 1460 1455 1460 1456 1456 1460 1461 1456 1461 1457 1457 1461 1458 1457 1458 1454 1470 1471 1472 1470 1472 1473 1474 1477 1476 1474 1476 1475 1470 1474 1475 1470 1475 1471 1471 1475 1476 1471 1476 1472 1472 1476 1477 1472 1477 1473 1473 1477 1474 1473 1474 1470 1478 1479 1480 1478 1480 1481 1482 1485 1484 1482 1484 1483 1478 1482 1483 1478 1483 1479 1479 1483 1484 1479 1484 1480 1480 1484 1485 1480 1485 1481 1481 1485 1482 1481 1482 1478 1562 1563 1564 1562 1564 1565 1566 1569 1568 1566 1568 1567 1562 1566 1567 1562 1567 1563 1563 1567 1568 1563 1568 1564 1564 1568 1569 1564 1569 1565 1565 1569 1566 1565 1566 1562 1578 1579 1580 1578 1580 1581 1582 1585 1584 1582 1584 1583 1578 1582 1583 1578 1583 1579 1579 1583 1584 1579 1584 1580 1580 1584 1585 1580 1585 1581 1581 1585 1582 1581 1582 1578</p>
          </triangles>

          <triangles material="blueFabric-symbol" count="84">
            <input semantic="VERTEX" source="#room-vertices" offset="0"/>
            <p>232 233 234 232 234 235 236 239 238 236 238 237 232 236 237 232 237 233 233 237 238 233 238 234 234 238 239 234 239 235 235 239 236 235 236 232 240 241 242 240 242 243 244 247 246 244 246 245 240 244 245 240 245 241 241 245 246 241 246 242 242 246 247 242 247 243 243 247 244 243 244 240 248 249 250 248 250 251 252 255 254 252 254 253 248 252 253 248 253 249 249 253 254 249 254 250 250 254 255 250 255 251 251 255 252 251 252 248 256 257 258 256 258 259 260 263 262 260 262 261 256 260 261 256 261 257 257 261 262 257 262 258 258 262 263 258 263 259 259 263 260 259 260 256 410 411 412 410 412 413 414 417 416 414 416 415 410 414 415 410 415 411 411 415 416 411 416 412 412 416 417 412 417 413 413 417 414 413 414 410 426 427 428 426 428 429 430 433 432 430 432 431 426 430 431 426 431 427 427 431 432 427 432 428 428 432 433 428 433 429 429 433 430 429 430 426 994 995 996 994 996 997 998 1001 1000 998 1000 999 994 998 999 994 999 995 995 999 1000 995 1000 996 996 1000 1001 996 1001 997 997 1001 998 997 998 994</p>
          </triangles>

          <triangles material="blueFabricLight-symbol" count="204">
            <input semantic="VERTEX" source="#room-vertices" offset="0"/>
            <p>264 265 266 264 266 267 268 271 270 268 270 269 264 268 269 264 269 265 265 269 270 265 270 266 266 270 271 266 271 267 267 271 268 267 268 264 272 273 274 272 274 275 276 279 278 276 278 277 272 276 277 272 277 273 273 277 278 273 278 274 274 278 279 274 279 275 275 279 276 275 276 272 280 281 282 280 282 283 284 287 286 284 286 285 280 284 285 280 285 281 281 285 286 281 286 282 282 286 287 282 287 283 283 287 284 283 284 280 288 289 290 288 290 291 292 295 294 292 294 293 288 292 293 288 293 289 289 293 294 289 294 290 290 294 295 290 295 291 291 295 292 291 292 288 296 297 298 296 298 299 300 303 302 300 302 301 296 300 301 296 301 297 297 301 302 297 302 298 298 302 303 298 303 299 299 303 300 299 300 296 304 305 306 304 306 307 308 311 310 308 310 309 304 308 309 304 309 305 305 309 310 305 310 306 306 310 311 306 311 307 307 311 308 307 308 304 312 313 314 312 314 315 316 319 318 316 318 317 312 316 317 312 317 313 313 317 318 313 318 314 314 318 319 314 319 315 315 319 316 315 316 312 320 321 322 320 322 323 324 327 326 324 326 325 320 324 325 320 325 321 321 325 326 321 326 322 322 326 327 322 327 323 323 327 324 323 324 320 328 329 330 328 330 331 332 335 334 332 334 333 328 332 333 328 333 329 329 333 334 329 334 330 330 334 335 330 335 331 331 335 332 331 332 328 336 337 338 336 338 339 340 343 342 340 342 341 336 340 341 336 341 337 337 341 342 337 342 338 338 342 343 338 343 339 339 343 340 339 340 336 458 459 460 458 460 461 462 465 464 462 464 463 458 462 463 458 463 459 459 463 464 459 464 460 460 464 465 460 465 461 461 465 462 461 462 458 466 467 468 466 468 469 470 473 472 470 472 471 466 470 471 466 471 467 467 471 472 467 472 468 468 472 473 468 473 469 469 473 470 469 470 466 474 475 476 474 476 477 478 481 480 478 480 479 474 478 479 474 479 475 475 479 480 475 480 476 476 480 481 476 481 477 477 481 478 477 478 474 482 483 484 482 484 485 486 489 488 486 488 487 482 486 487 482 487 483 483 487 488 483 488 484 484 488 489 484 489 485 485 489 486 485 486 482 490 491 492 490 492 493 494 497 496 494 496 495 490 494 495 490 495 491 491 495 496 491 496 492 492 496 497 492 497 493 493 497 494 493 494 490 498 499 500 498 500 501 502 505 504 502 504 503 498 502 503 498 503 499 499 503 504 499 504 500 500 504 505 500 505 501 501 505 502 501 502 498 1486 1487 1488 1486 1488 1489 1490 1493 1492 1490 1492 1491 1486 1490 1491 1486 1491 1487 1487 1491 1492 1487 1492 1488 1488 1492 1493 1488 1493 1489 1489 1493 1490 1489 1490 1486</p>
          </triangles>

          <triangles material="wood-symbol" count="256">
            <input semantic="VERTEX" source="#room-vertices" offset="0"/>
            <p>344 345 346 344 346 347 348 351 350 348 350 349 344 348 349 344 349 345 345 349 350 345 350 346 346 350 351 346 351 347 347 351 348 347 348 344 373 374 375 373 375 376 377 380 379 377 379 378 373 377 378 373 378 374 374 378 379 374 379 375 375 379 380 375 380 376 376 380 377 376 377 373 402 403 404 402 404 405 406 409 408 406 408 407 402 406 407 402 407 403 403 407 408 403 408 404 404 408 409 404 409 405 405 409 406 405 406 402 506 507 508 506 508 509 510 513 512 510 512 511 506 510 511 506 511 507 507 511 512 507 512 508 508 512 513 508 513 509 509 513 510 509 510 506 598 599 600 598 600 601 602 605 604 602 604 603 598 602 603 598 603 599 599 603 604 599 604 600 600 604 605 600 605 601 601 605 602 601 602 598 1002 1003 1004 1002 1004 1005 1006 1009 1008 1006 1008 1007 1002 1006 1007 1002 1007 1003 1003 1007 1008 1003 1008 1004 1004 1008 1009 1004 1009 1005 1005 1009 1006 1005 1006 1002 1010 1011 1012 1010 1012 1013 1014 1017 1016 1014 1016 1015 1010 1014 1015 1010 1015 1011 1011 1015 1016 1011 1016 1012 1012 1016 1017 1012 1017 1013 1013 1017 1014 1013 1014 1010 1018 1019 1020 1018 1020 1021 1022 1025 1024 1022 1024 1023 1018 1022 1023 1018 1023 1019 1019 1023 1024 1019 1024 1020 1020 1024 1025 1020 1025 1021 1021 1025 1022 1021 1022 1018 1146 1147 1148 1146 1148 1149 1150 1153 1152 1150 1152 1151 1146 1150 1151 1146 1151 1147 1147 1151 1152 1147 1152 1148 1148 1152 1153 1148 1153 1149 1149 1153 1150 1149 1150 1146 1194 1195 1196 1194 1196 1197 1198 1201 1200 1198 1200 1199 1194 1198 1199 1194 1199 1195 1195 1199 1200 1195 1200 1196 1196 1200 1201 1196 1201 1197 1197 1201 1198 1197 1198 1194 1620 1618 1616 1620 1616 1614 1620 1614 1612 1620 1612 1610 1620 1610 1608 1620 1608 1606 1620 1606 1604 1620 1604 1602 1620 1602 1600 1620 1600 1598 1620 1598 1596 1620 1596 1594 1620 1594 1592 1620 1592 1590 1620 1590 1588 1620 1588 1586 1587 1589 1591 1587 1591 1593 1587 1593 1595 1587 1595 1597 1587 1597 1599 1587 1599 1601 1587 1601 1603 1587 1603 1605 1587 1605 1607 1587 1607 1609 1587 1609 1611 1587 1611 1613 1587 1613 1615 1587 1615 1617 1587 1617 1619 1587 1619 1621 1586 1588 1589 1586 1589 1587 1588 1590 1591 1588 1591 1589 1590 1592 1593 1590 1593 1591 1592 1594 1595 1592 1595 1593 1594 1596 1597 1594 1597 1595 1596 1598 1599 1596 1599 1597 1598 1600 1601 1598 1601 1599 1600 1602 1603 1600 1603 1601 1602 1604 1605 1602 1605 1603 1604 1606 1607 1604 1607 1605 1606 1608 1609 1606 1609 1607 1608 1610 1611 1608 1611 1609 1610 1612 1613 1610 1613 1611 1612 1614 1615 1612 1615 1613 1614 1616 1617 1614 1617 1615 1616 1618 1619 1616 1619 1617 1618 1620 1621 1618 1621 1619 1620 1586 1587 1620 1587 1621 1784 1782 1780 1784 1780 1778 1784 1778 1776 1784 1776 1774 1784 1774 1772 1784 1772 1770 1784 1770 1768 1784 1768 1766 1784 1766 1764 1784 1764 1762 1784 1762 1760 1784 1760 1758 1784 1758 1756 1784 1756 1754 1784 1754 1752 1784 1752 1750 1751 1753 1755 1751 1755 1757 1751 1757 1759 1751 1759 1761 1751 1761 1763 1751 1763 1765 1751 1765 1767 1751 1767 1769 1751 1769 1771 1751 1771 1773 1751 1773 1775 1751 1775 1777 1751 1777 1779 1751 1779 1781 1751 1781 1783 1751 1783 1785 1750 1752 1753 1750 1753 1751 1752 1754 1755 1752 1755 1753 1754 1756 1757 1754 1757 1755 1756 1758 1759 1756 1759 1757 1758 1760 1761 1758 1761 1759 1760 1762 1763 1760 1763 1761 1762 1764 1765 1762 1765 1763 1764 1766 1767 1764 1767 1765 1766 1768 1769 1766 1769 1767 1768 1770 1771 1768 1771 1769 1770 1772 1773 1770 1773 1771 1772 1774 1775 1772 1775 1773 1774 1776 1777 1774 1777 1775 1776 1778 1779 1776 1779 1777 1778 1780 1781 1778 1781 1779 1780 1782 1783 1780 1783 1781 1782 1784 1785 1782 1785 1783 1784 1750 1751 1784 1751 1785</p>
          </triangles>

          <triangles material="white-symbol" count="208">
            <input semantic="VERTEX" source="#room-vertices" offset="0"/>
            <p>418 419 420 418 420 421 422 425 424 422 424 423 418 422 423 418 423 419 419 423 424 419 424 420 420 424 425 420 425 421 421 425 422 421 422 418 564 562 560 564 560 558 564 558 556 564 556 554 564 554 552 564 552 550 564 550 548 564 548 546 564 546 544 564 544 542 564 542 540 564 540 538 564 538 536 564 536 534 564 534 532 564 532 530 531 533 535 531 535 537 531 537 539 531 539 541 531 541 543 531 543 545 531 545 547 531 547 549 531 549 551 531 551 553 531 553 555 531 555 557 531 557 559 531 559 561 531 561 563 531 563 565 530 532 533 530 533 531 532 534 535 532 535 533 534 536 537 534 537 535 536 538 539 536 539 537 538 540 541 538 541 539 540 542 543 540 543 541 542 544 545 542 545 543 544 546 547 544 547 545 546 548 549 546 549 547 548 550 551 548 551 549 550 552 553 550 553 551 552 554 555 552 555 553 554 556 557 554 557 555 556 558 559 556 559 557 558 560 561 558 561 559 560 562 563 560 563 561 562 564 565 562 565 563 564 530 531 564 531 565 1394 1395 1396 1394 1396 1397 1398 1401 1400 1398 1400 1399 1394 1398 1399 1394 1399 1395 1395 1399 1400 1395 1400 1396 1396 1400 1401 1396 1401 1397 1397 1401 1398 1397 1398 1394 1402 1403 1404 1402 1404 1405 1406 1409 1408 1406 1408 1407 1402 1406 1407 1402 1407 1403 1403 1407 1408 1403 1408 1404 1404 1408 1409 1404 1409 1405 1405 1409 1406 1405 1406 1402 1502 1503 1504 1502 1504 1505 1506 1509 1508 1506 1508 1507 1502 1506 1507 1502 1507 1503 1503 1507 1508 1503 1508 1504 1504 1508 1509 1504 1509 1505 1505 1509 1506 1505 1506 1502 1510 1511 1512 1510 1512 1513 1514 1517 1516 1514 1516 1515 1510 1514 1515 1510 1515 1511 1511 1515 1516 1511 1516 1512 1512 1516 1517 1512 1517 1513 1513 1517 1514 1513 1514 1510 1552 1550 1548 1552 1548 1546 1552 1546 1544 1552 1544 1542 1552 1542 1540 1552 1540 1538 1552 1538 1536 1552 1536 1534 1552 1534 1532 1552 1532 1530 1552 1530 1528 1552 1528 1526 1552 1526 1524 1552 1524 1522 1552 1522 1520 1552 1520 1518 1519 1521 1523 1519 1523 1525 1519 1525 1527 1519 1527 1529 1519 1529 1531 1519 1531 1533 1519 1533 1535 1519 1535 1537 1519 1537 1539 1519 1539 1541 1519 1541 1543 1519 1543 1545 1519 1545 1547 1519 1547 1549 1519 1549 1551 1519 1551 1553 1518 1520 1521 1518 1521 1519 1520 1522 1523 1520 1523 1521 1522 1524 1525 1522 1525 1523 1524 1526 1527 1524 1527 1525 1526 1528 1529 1526 1529 1527 1528 1530 1531 1528 1531 1529 1530 1532 1533 1530 1533 1531 1532 1534 1535 1532 1535 1533 1534 1536 1537 1534 1537 1535 1536 1538 1539 1536 1539 1537 1538 1540 1541 1538 1541 1539 1540 1542 1543 1540 1543 1541 1542 1544 1545 1542 1545 1543 1544 1546 1547 1544 1547 1545 1546 1548 1549 1546 1549 1547 1548 1550 1551 1548 1551 1549 1550 1552 1553 1550 1553 1551 1552 1518 1519 1552 1519 1553 1570 1571 1572 1570 1572 1573 1574 1577 1576 1574 1576 1575 1570 1574 1575 1570 1575 1571 1571 1575 1576 1571 1576 1572 1572 1576 1577 1572 1577 1573 1573 1577 1574 1573 1574 1570</p>
          </triangles>

          <triangles material="paper-symbol" count="60">
            <input semantic="VERTEX" source="#room-vertices" offset="0"/>
            <p>450 451 452 450 452 453 454 457 456 454 456 455 450 454 455 450 455 451 451 455 456 451 456 452 452 456 457 452 457 453 453 457 454 453 454 450 686 687 688 686 688 689 690 693 692 690 692 691 686 690 691 686 691 687 687 691 692 687 692 688 688 692 693 688 693 689 689 693 690 689 690 686 718 719 720 718 720 721 722 725 724 722 724 723 718 722 723 718 723 719 719 723 724 719 724 720 720 724 725 720 725 721 721 725 722 721 722 718 734 735 736 734 736 737 738 741 740 738 740 739 734 738 739 734 739 735 735 739 740 735 740 736 736 740 741 736 741 737 737 741 738 737 738 734 1554 1555 1556 1554 1556 1557 1558 1561 1560 1558 1560 1559 1554 1558 1559 1554 1559 1555 1555 1559 1560 1555 1560 1556 1556 1560 1561 1556 1561 1557 1557 1561 1558 1557 1558 1554</p>
          </triangles>

          <triangles material="woodLight-symbol" count="132">
            <input semantic="VERTEX" source="#room-vertices" offset="0"/>
            <p>514 515 516 514 516 517 518 521 520 518 520 519 514 518 519 514 519 515 515 519 520 515 520 516 516 520 521 516 521 517 517 521 518 517 518 514 606 607 608 606 608 609 610 613 612 610 612 611 606 610 611 606 611 607 607 611 612 607 612 608 608 612 613 608 613 609 609 613 610 609 610 606 614 615 616 614 616 617 618 621 620 618 620 619 614 618 619 614 619 615 615 619 620 615 620 616 616 620 621 616 621 617 617 621 618 617 618 614 630 631 632 630 632 633 634 637 636 634 636 635 630 634 635 630 635 631 631 635 636 631 636 632 632 636 637 632 637 633 633 637 634 633 634 630 646 647 648 646 648 649 650 653 652 650 652 651 646 650 651 646 651 647 647 651 652 647 652 648 648 652 653 648 653 649 649 653 650 649 650 646 1026 1027 1028 1026 1028 1029 1030 1033 1032 1030 1032 1031 1026 1030 1031 1026 1031 1027 1027 1031 1032 1027 1032 1028 1028 1032 1033 1028 1033 1029 1029 1033 1030 1029 1030 1026 1042 1043 1044 1042 1044 1045 1046 1049 1048 1046 1048 1047 1042 1046 1047 1042 1047 1043 1043 1047 1048 1043 1048 1044 1044 1048 1049 1044 1049 1045 1045 1049 1046 1045 1046 1042 1058 1059 1060 1058 1060 1061 1062 1065 1064 1062 1064 1063 1058 1062 1063 1058 1063 1059 1059 1063 1064 1059 1064 1060 1060 1064 1065 1060 1065 1061 1061 1065 1062 1061 1062 1058 1090 1091 1092 1090 1092 1093 1094 1097 1096 1094 1096 1095 1090 1094 1095 1090 1095 1091 1091 1095 1096 1091 1096 1092 1092 1096 1097 1092 1097 1093 1093 1097 1094 1093 1094 1090 1098 1099 1100 1098 1100 1101 1102 1105 1104 1102 1104 1103 1098 1102 1103 1098 1103 1099 1099 1103 1104 1099 1104 1100 1100 1104 1105 1100 1105 1101 1101 1105 1102 1101 1102 1098 1446 1447 1448 1446 1448 1449 1450 1453 1452 1450 1452 1451 1446 1450 1451 1446 1451 1447 1447 1451 1452 1447 1452 1448 1448 1452 1453 1448 1453 1449 1449 1453 1450 1449 1450 1446</p>
          </triangles>

          <triangles material="black-symbol" count="428">
            <input semantic="VERTEX" source="#room-vertices" offset="0"/>
            <p>574 575 576 574 576 577 578 581 580 578 580 579 574 578 579 574 579 575 575 579 580 575 580 576 576 580 581 576 581 577 577 581 578 577 578 574 678 679 680 678 680 681 682 685 684 682 684 683 678 682 683 678 683 679 679 683 684 679 684 680 680 684 685 680 685 681 681 685 682 681 682 678 776 774 772 776 772 770 776 770 768 776 768 766 776 766 764 776 764 762 776 762 760 776 760 758 776 758 756 776 756 754 776 754 752 776 752 750 776 750 748 776 748 746 776 746 744 776 744 742 743 745 747 743 747 749 743 749 751 743 751 753 743 753 755 743 755 757 743 757 759 743 759 761 743 761 763 743 763 765 743 765 767 743 767 769 743 769 771 743 771 773 743 773 775 743 775 777 742 744 745 742 745 743 744 746 747 744 747 745 746 748 749 746 749 747 748 750 751 748 751 749 750 752 753 750 753 751 752 754 755 752 755 753 754 756 757 754 757 755 756 758 759 756 759 757 758 760 761 758 761 759 760 762 763 760 763 761 762 764 765 762 765 763 764 766 767 764 767 765 766 768 769 766 769 767 768 770 771 768 771 769 770 772 773 770 773 771 772 774 775 772 775 773 774 776 777 774 777 775 776 742 743 776 743 777 778 779 780 778 780 781 782 785 784 782 784 783 778 782 783 778 783 779 779 783 784 779 784 780 780 784 785 780 785 781 781 785 782 781 782 778 786 787 788 786 788 789 790 793 792 790 792 791 786 790 791 786 791 787 787 791 792 787 792 788 788 792 793 788 793 789 789 793 790 789 790 786 794 795 796 794 796 797 798 801 800 798 800 799 794 798 799 794 799 795 795 799 800 795 800 796 796 800 801 796 801 797 797 801 798 797 798 794 802 803 804 802 804 805 806 809 808 806 808 807 802 806 807 802 807 803 803 807 808 803 808 804 804 808 809 804 809 805 805 809 806 805 806 802 872 870 868 872 868 866 872 866 864 872 864 862 872 862 860 872 860 858 872 858 856 872 856 854 855 857 859 855 859 861 855 861 863 855 863 865 855 865 867 855 867 869 855 869 871 855 871 873 854 856 857 854 857 855 856 858 859 856 859 857 858 860 861 858 861 859 860 862 863 860 863 861 862 864 865 862 865 863 864 866 867 864 867 865 866 868 869 866 869 867 868 870 871 868 871 869 870 872 873 870 873 871 872 854 855 872 855 873 900 898 896 900 896 894 900 894 892 900 892 890 900 890 888 900 888 886 900 886 884 900 884 882 883 885 887 883 887 889 883 889 891 883 891 893 883 893 895 883 895 897 883 897 899 883 899 901 882 884 885 882 885 883 884 886 887 884 887 885 886 888 889 886 889 887 888 890 891 888 891 889 890 892 893 890 893 891 892 894 895 892 895 893 894 896 897 894 897 895 896 898 899 896 899 897 898 900 901 898 901 899 900 882 883 900 883 901 928 926 924 928 924 922 928 922 920 928 920 918 928 918 916 928 916 914 928 914 912 928 912 910 911 913 915 911 915 917 911 917 919 911 919 921 911 921 923 911 923 925 911 925 927 911 927 929 910 912 913 910 913 911 912 914 915 912 915 913 914 916 917 914 917 915 916 918 919 916 919 917 918 920 921 918 921 919 920 922 923 920 923 921 922 924 925 922 925 923 924 926 927 924 927 925 926 928 929 926 929 927 928 910 911 928 911 929 956 954 952 956 952 950 956 950 948 956 948 946 956 946 944 956 944 942 956 942 940 956 940 938 939 941 943 939 943 945 939 945 947 939 947 949 939 949 951 939 951 953 939 953 955 939 955 957 938 940 941 938 941 939 940 942 943 940 943 941 942 944 945 942 945 943 944 946 947 944 947 945 946 948 949 946 949 947 948 950 951 948 951 949 950 952 953 950 953 951 952 954 955 952 955 953 954 956 957 954 957 955 956 938 939 956 939 957 984 982 980 984 980 978 984 978 976 984 976 974 984 974 972 984 972 970 984 970 968 984 968 966 967 969 971 967 971 973 967 973 975 967 975 977 967 977 979 967 979 981 967 981 983 967 983 985 966 968 969 966 969 967 968 970 971 968 971 969 970 972 973 970 973 971 972 974 975 972 975 973 974 976 977 974 977 975 976 978 979 976 979 977 978 980 981 978 981 979 980 982 983 980 983 981 982 984 985 982 985 983 984 966 967 984 967 985 1106 1107 1108 1106 1108 1109 1110 1113 1112 1110 1112 1111 1106 1110 1111 1106 1111 1107 1107 1111 1112 1107 1112 1108 1108 1112 1113 1108 1113 1109 1109 1113 1110 1109 1110 1106 1130 1131 1132 1130 1132 1133 1134 1137 1136 1134 1136 1135 1130 1134 1135 1130 1135 1131 1131 1135 1136 1131 1136 1132 1132 1136 1137 1132 1137 1133 1133 1137 1134 1133 1134 1130 1178 1179 1180 1178 1180 1181 1182 1185 1184 1182 1184 1183 1178 1182 1183 1178 1183 1179 1179 1183 1184 1179 1184 1180 1180 1184 1185 1180 1185 1181 1181 1185 1182 1181 1182 1178 1186 1187 1188 1186 1188 1189 1190 1193 1192 1190 1192 1191 1186 1190 1191 1186 1191 1187 1187 1191 1192 1187 1192 1188 1188 1192 1193 1188 1193 1189 1189 1193 1190 1189 1190 1186 1202 1203 1204 1202 1204 1205 1206 1209 1208 1206 1208 1207 1202 1206 1207 1202 1207 1203 1203 1207 1208 1203 1208 1204 1204 1208 1209 1204 1209 1205 1205 1209 1206 1205 1206 1202 1210 1211 1212 1210 1212 1213 1214 1217 1216 1214 1216 1215 1210 1214 1215 1210 1215 1211 1211 1215 1216 1211 1216 1212 1212 1216 1217 1212 1217 1213 1213 1217 1214 1213 1214 1210 1226 1227 1228 1226 1228 1229 1230 1233 1232 1230 1232 1231 1226 1230 1231 1226 1231 1227 1227 1231 1232 1227 1232 1228 1228 1232 1233 1228 1233 1229 1229 1233 1230 1229 1230 1226 1242 1243 1244 1242 1244 1245 1246 1249 1248 1246 1248 1247 1242 1246 1247 1242 1247 1243 1243 1247 1248 1243 1248 1244 1244 1248 1249 1244 1249 1245 1245 1249 1246 1245 1246 1242 1258 1259 1260 1258 1260 1261 1262 1265 1264 1262 1264 1263 1258 1262 1263 1258 1263 1259 1259 1263 1264 1259 1264 1260 1260 1264 1265 1260 1265 1261 1261 1265 1262 1261 1262 1258</p>
          </triangles>

          <triangles material="red-symbol" count="24">
            <input semantic="VERTEX" source="#room-vertices" offset="0"/>
            <p>582 583 584 582 584 585 586 589 588 586 588 587 582 586 587 582 587 583 583 587 588 583 588 584 584 588 589 584 589 585 585 589 586 585 586 582 590 591 592 590 592 593 594 597 596 594 596 595 590 594 595 590 595 591 591 595 596 591 596 592 592 596 597 592 597 593 593 597 594 593 594 590</p>
          </triangles>

          <triangles material="deskDark-symbol" count="12">
            <input semantic="VERTEX" source="#room-vertices" offset="0"/>
            <p>662 663 664 662 664 665 666 669 668 666 668 667 662 666 667 662 667 663 663 667 668 663 668 664 664 668 669 664 669 665 665 669 666 665 666 662</p>
          </triangles>

          <triangles material="bookBlue-symbol" count="12">
            <input semantic="VERTEX" source="#room-vertices" offset="0"/>
            <p>694 695 696 694 696 697 698 701 700 698 700 699 694 698 699 694 699 695 695 699 700 695 700 696 696 700 701 696 701 697 697 701 698 697 698 694</p>
          </triangles>

          <triangles material="bookCream-symbol" count="12">
            <input semantic="VERTEX" source="#room-vertices" offset="0"/>
            <p>702 703 704 702 704 705 706 709 708 706 708 707 702 706 707 702 707 703 703 707 708 703 708 704 704 708 709 704 709 705 705 709 706 705 706 702</p>
          </triangles>

          <triangles material="darkFabric-symbol" count="12">
            <input semantic="VERTEX" source="#room-vertices" offset="0"/>
            <p>986 987 988 986 988 989 990 993 992 990 992 991 986 990 991 986 991 987 987 991 992 987 992 988 988 992 993 988 993 989 989 993 990 989 990 986</p>
          </triangles>

          <triangles material="green-symbol" count="144">
            <input semantic="VERTEX" source="#room-vertices" offset="0"/>
            <p>1114 1115 1116 1114 1116 1117 1118 1121 1120 1118 1120 1119 1114 1118 1119 1114 1119 1115 1115 1119 1120 1115 1120 1116 1116 1120 1121 1116 1121 1117 1117 1121 1118 1117 1118 1114 1154 1155 1156 1154 1156 1157 1158 1161 1160 1158 1160 1159 1154 1158 1159 1154 1159 1155 1155 1159 1160 1155 1160 1156 1156 1160 1161 1156 1161 1157 1157 1161 1158 1157 1158 1154 1494 1495 1496 1494 1496 1497 1498 1501 1500 1498 1500 1499 1494 1498 1499 1494 1499 1495 1495 1499 1500 1495 1500 1496 1496 1500 1501 1496 1501 1497 1497 1501 1498 1497 1498 1494 1622 1623 1624 1622 1624 1625 1626 1629 1628 1626 1628 1627 1622 1626 1627 1622 1627 1623 1623 1627 1628 1623 1628 1624 1624 1628 1629 1624 1629 1625 1625 1629 1626 1625 1626 1622 1638 1639 1640 1638 1640 1641 1642 1645 1644 1642 1644 1643 1638 1642 1643 1638 1643 1639 1639 1643 1644 1639 1644 1640 1640 1644 1645 1640 1645 1641 1641 1645 1642 1641 1642 1638 1654 1655 1656 1654 1656 1657 1658 1661 1660 1658 1660 1659 1654 1658 1659 1654 1659 1655 1655 1659 1660 1655 1660 1656 1656 1660 1661 1656 1661 1657 1657 1661 1658 1657 1658 1654 1670 1671 1672 1670 1672 1673 1674 1677 1676 1674 1676 1675 1670 1674 1675 1670 1675 1671 1671 1675 1676 1671 1676 1672 1672 1676 1677 1672 1677 1673 1673 1677 1674 1673 1674 1670 1686 1687 1688 1686 1688 1689 1690 1693 1692 1690 1692 1691 1686 1690 1691 1686 1691 1687 1687 1691 1692 1687 1692 1688 1688 1692 1693 1688 1693 1689 1689 1693 1690 1689 1690 1686 1702 1703 1704 1702 1704 1705 1706 1709 1708 1706 1708 1707 1702 1706 1707 1702 1707 1703 1703 1707 1708 1703 1708 1704 1704 1708 1709 1704 1709 1705 1705 1709 1706 1705 1706 1702 1718 1719 1720 1718 1720 1721 1722 1725 1724 1722 1724 1723 1718 1722 1723 1718 1723 1719 1719 1723 1724 1719 1724 1720 1720 1724 1725 1720 1725 1721 1721 1725 1722 1721 1722 1718 1734 1735 1736 1734 1736 1737 1738 1741 1740 1738 1740 1739 1734 1738 1739 1734 1739 1735 1735 1739 1740 1735 1740 1736 1736 1740 1741 1736 1741 1737 1737 1741 1738 1737 1738 1734 1786 1787 1788 1786 1788 1789 1790 1793 1792 1790 1792 1791 1786 1790 1791 1786 1791 1787 1787 1791 1792 1787 1792 1788 1788 1792 1793 1788 1793 1789 1789 1793 1790 1789 1790 1786</p>
          </triangles>

          <triangles material="orange-symbol" count="12">
            <input semantic="VERTEX" source="#room-vertices" offset="0"/>
            <p>1122 1123 1124 1122 1124 1125 1126 1129 1128 1126 1128 1127 1122 1126 1127 1122 1127 1123 1123 1127 1128 1123 1128 1124 1124 1128 1129 1124 1129 1125 1125 1129 1126 1125 1126 1122</p>
          </triangles>

          <triangles material="olive-symbol" count="120">
            <input semantic="VERTEX" source="#room-vertices" offset="0"/>
            <p>1162 1163 1164 1162 1164 1165 1166 1169 1168 1166 1168 1167 1162 1166 1167 1162 1167 1163 1163 1167 1168 1163 1168 1164 1164 1168 1169 1164 1169 1165 1165 1169 1166 1165 1166 1162 1170 1171 1172 1170 1172 1173 1174 1177 1176 1174 1176 1175 1170 1174 1175 1170 1175 1171 1171 1175 1176 1171 1176 1172 1172 1176 1177 1172 1177 1173 1173 1177 1174 1173 1174 1170 1630 1631 1632 1630 1632 1633 1634 1637 1636 1634 1636 1635 1630 1634 1635 1630 1635 1631 1631 1635 1636 1631 1636 1632 1632 1636 1637 1632 1637 1633 1633 1637 1634 1633 1634 1630 1646 1647 1648 1646 1648 1649 1650 1653 1652 1650 1652 1651 1646 1650 1651 1646 1651 1647 1647 1651 1652 1647 1652 1648 1648 1652 1653 1648 1653 1649 1649 1653 1650 1649 1650 1646 1662 1663 1664 1662 1664 1665 1666 1669 1668 1666 1668 1667 1662 1666 1667 1662 1667 1663 1663 1667 1668 1663 1668 1664 1664 1668 1669 1664 1669 1665 1665 1669 1666 1665 1666 1662 1678 1679 1680 1678 1680 1681 1682 1685 1684 1682 1684 1683 1678 1682 1683 1678 1683 1679 1679 1683 1684 1679 1684 1680 1680 1684 1685 1680 1685 1681 1681 1685 1682 1681 1682 1678 1694 1695 1696 1694 1696 1697 1698 1701 1700 1698 1700 1699 1694 1698 1699 1694 1699 1695 1695 1699 1700 1695 1700 1696 1696 1700 1701 1696 1701 1697 1697 1701 1698 1697 1698 1694 1710 1711 1712 1710 1712 1713 1714 1717 1716 1714 1716 1715 1710 1714 1715 1710 1715 1711 1711 1715 1716 1711 1716 1712 1712 1716 1717 1712 1717 1713 1713 1717 1714 1713 1714 1710 1726 1727 1728 1726 1728 1729 1730 1733 1732 1730 1732 1731 1726 1730 1731 1726 1731 1727 1727 1731 1732 1727 1732 1728 1728 1732 1733 1728 1733 1729 1729 1733 1730 1729 1730 1726 1742 1743 1744 1742 1744 1745 1746 1749 1748 1746 1748 1747 1742 1746 1747 1742 1747 1743 1743 1747 1748 1743 1748 1744 1744 1748 1749 1744 1749 1745 1745 1749 1746 1745 1746 1742</p>
          </triangles>

          <triangles material="mirror-symbol" count="12">
            <input semantic="VERTEX" source="#room-vertices" offset="0"/>
            <p>1462 1463 1464 1462 1464 1465 1466 1469 1468 1466 1468 1467 1462 1466 1467 1462 1467 1463 1463 1467 1468 1463 1468 1464 1464 1468 1469 1464 1469 1465 1465 1469 1466 1465 1466 1462</p>
          </triangles>

          <triangles material="marbleVein-symbol" count="108">
            <input semantic="VERTEX" source="#room-vertices" offset="0"/>
            <p>1794 1795 1796 1794 1796 1797 1798 1801 1800 1798 1800 1799 1794 1798 1799 1794 1799 1795 1795 1799 1800 1795 1800 1796 1796 1800 1801 1796 1801 1797 1797 1801 1798 1797 1798 1794 1802 1803 1804 1802 1804 1805 1806 1809 1808 1806 1808 1807 1802 1806 1807 1802 1807 1803 1803 1807 1808 1803 1808 1804 1804 1808 1809 1804 1809 1805 1805 1809 1806 1805 1806 1802 1810 1811 1812 1810 1812 1813 1814 1817 1816 1814 1816 1815 1810 1814 1815 1810 1815 1811 1811 1815 1816 1811 1816 1812 1812 1816 1817 1812 1817 1813 1813 1817 1814 1813 1814 1810 1818 1819 1820 1818 1820 1821 1822 1825 1824 1822 1824 1823 1818 1822 1823 1818 1823 1819 1819 1823 1824 1819 1824 1820 1820 1824 1825 1820 1825 1821 1821 1825 1822 1821 1822 1818 1826 1827 1828 1826 1828 1829 1830 1833 1832 1830 1832 1831 1826 1830 1831 1826 1831 1827 1827 1831 1832 1827 1832 1828 1828 1832 1833 1828 1833 1829 1829 1833 1830 1829 1830 1826 1834 1835 1836 1834 1836 1837 1838 1841 1840 1838 1840 1839 1834 1838 1839 1834 1839 1835 1835 1839 1840 1835 1840 1836 1836 1840 1841 1836 1841 1837 1837 1841 1838 1837 1838 1834 1842 1843 1844 1842 1844 1845 1846 1849 1848 1846 1848 1847 1842 1846 1847 1842 1847 1843 1843 1847 1848 1843 1848 1844 1844 1848 1849 1844 1849 1845 1845 1849 1846 1845 1846 1842 1850 1851 1852 1850 1852 1853 1854 1857 1856 1854 1856 1855 1850 1854 1855 1850 1855 1851 1851 1855 1856 1851 1856 1852 1852 1856 1857 1852 1857 1853 1853 1857 1854 1853 1854 1850 1858 1859 1860 1858 1860 1861 1862 1865 1864 1862 1864 1863 1858 1862 1863 1858 1863 1859 1859 1863 1864 1859 1864 1860 1860 1864 1865 1860 1865 1861 1861 1865 1862 1861 1862 1858</p>
          </triangles>
      </mesh>
    </geometry>
  </library_geometries>
  <library_visual_scenes>
    <visual_scene id="Scene" name="Scene">
      <node id="manga_room_reference" name="manga_room_reference">
        <instance_geometry url="#manga-room-reference">
          <bind_material>
            <technique_common>
              <instance_material symbol="wall-symbol" target="#wall"/>

              <instance_material symbol="wallInset-symbol" target="#wallInset"/>

              <instance_material symbol="floor-symbol" target="#floor"/>

              <instance_material symbol="marbleVein-symbol" target="#marbleVein"/>

              <instance_material symbol="tileLine-symbol" target="#tileLine"/>

              <instance_material symbol="wood-symbol" target="#wood"/>

              <instance_material symbol="woodLight-symbol" target="#woodLight"/>

              <instance_material symbol="woodDark-symbol" target="#woodDark"/>

              <instance_material symbol="blueFabric-symbol" target="#blueFabric"/>

              <instance_material symbol="blueFabricLight-symbol" target="#blueFabricLight"/>

              <instance_material symbol="darkFabric-symbol" target="#darkFabric"/>

              <instance_material symbol="deskDark-symbol" target="#deskDark"/>

              <instance_material symbol="glass-symbol" target="#glass"/>

              <instance_material symbol="metal-symbol" target="#metal"/>

              <instance_material symbol="chrome-symbol" target="#chrome"/>

              <instance_material symbol="white-symbol" target="#white"/>

              <instance_material symbol="paper-symbol" target="#paper"/>

              <instance_material symbol="grey-symbol" target="#grey"/>

              <instance_material symbol="lightGrey-symbol" target="#lightGrey"/>

              <instance_material symbol="mirror-symbol" target="#mirror"/>

              <instance_material symbol="green-symbol" target="#green"/>

              <instance_material symbol="olive-symbol" target="#olive"/>

              <instance_material symbol="red-symbol" target="#red"/>

              <instance_material symbol="orange-symbol" target="#orange"/>

              <instance_material symbol="bookBlue-symbol" target="#bookBlue"/>

              <instance_material symbol="bookCream-symbol" target="#bookCream"/>

              <instance_material symbol="black-symbol" target="#black"/>
            </technique_common>
          </bind_material>
        </instance_geometry>
      </node>
    </visual_scene>
  </library_visual_scenes>
  <scene>
    <instance_visual_scene url="#Scene"/>
  </scene>
</COLLADA>
